<svg xmlns="http://www.w3.org/2000/svg" xmlns:xlink="http://www.w3.org/1999/xlink" width="2656" height="1760"><g transform="translate(2592 0)"><path d="M-2560 665c0-2.76 2.24-5 5-5h222.7c2.76 0 5 2.24 5 5v88.5c0 2.76-2.24 5-5 5H-2555c-2.76 0-5-2.24-5-5z" fill="#fff"/><path d="M-2560 665c0-2.76 2.24-5 5-5h222.7c2.76 0 5 2.24 5 5v88.5c0 2.76-2.24 5-5 5H-2555c-2.76 0-5-2.24-5-5zM-2560 700h232.7M-2488.05 700v58.5M-2402.2 700v58.5" stroke="#666" stroke-width="2" fill="none"/><use xlink:href="#a" transform="matrix(1,0,0,1,-2550,660) translate(35.14999999999999 23.6)"/><use xlink:href="#b" transform="matrix(1,0,0,1,-2555,702.5) translate(5.024999999999999 15.1)"/><use xlink:href="#c" transform="matrix(1,0,0,1,-2483.05,702.5) translate(6.574999999999996 15.1)"/><use xlink:href="#d" transform="matrix(1,0,0,1,-2397.2,702.5) translate(5.049999999999997 15.1)"/><use xlink:href="#b" transform="matrix(1,0,0,1,-2555,730.5) translate(5.024999999999999 15.1)"/><use xlink:href="#e" transform="matrix(1,0,0,1,-2483.05,730.5) translate(5.075000000000003 15.1)"/><use xlink:href="#d" transform="matrix(1,0,0,1,-2397.2,730.5) translate(5.049999999999997 15.1)"/><path d="M-775.55 220.75c0-2.76 2.24-5 5-5H-417c2.76 0 5 2.24 5 5v200.5c0 2.76-2.24 5-5 5h-353.55c-2.76 0-5-2.24-5-5z" fill="#fff"/><path d="M-775.55 220.75c0-2.76 2.24-5 5-5H-417c2.76 0 5 2.24 5 5v200.5c0 2.76-2.24 5-5 5h-353.55c-2.76 0-5-2.24-5-5zM-775.55 255.75H-412M-731.55 255.75v170.5M-601.7 255.75v170.5" stroke="#666" stroke-width="2" fill="none"/><use xlink:href="#f" transform="matrix(1,0,0,1,-765.5500000000001,215.75) translate(129.1 23.6)"/><use xlink:href="#g" transform="matrix(1,0,0,1,-770.5500000000001,258.25) translate(5 15.1)"/><use xlink:href="#h" transform="matrix(1,0,0,1,-726.5500000000001,258.25) translate(15.024999999999999 15.1)"/><use xlink:href="#d" transform="matrix(1,0,0,1,-596.7,258.25) translate(62.55 15.1)"/><use xlink:href="#i" transform="matrix(1,0,0,1,-770.5500000000001,286.25) translate(17 16.9)"/><use xlink:href="#j" transform="matrix(1,0,0,1,-726.5500000000001,286.25) translate(-0.9250000000000043 15.1)"/><use xlink:href="#k" transform="matrix(1,0,0,1,-596.7,286.25) translate(5.1499999999999915 15.1)"/><use xlink:href="#l" transform="matrix(1,0,0,1,-596.7,286.25) translate(85.05 15.1)"/><use xlink:href="#i" transform="matrix(1,0,0,1,-770.5500000000001,314.25) translate(17 16.9)"/><use xlink:href="#m" transform="matrix(1,0,0,1,-726.5500000000001,314.25) translate(15.049999999999997 15.1)"/><use xlink:href="#k" transform="matrix(1,0,0,1,-596.7,314.25) translate(5.1499999999999915 15.1)"/><use xlink:href="#n" transform="matrix(1,0,0,1,-596.7,314.25) translate(85.05 15.1)"/><use xlink:href="#i" transform="matrix(1,0,0,1,-770.5500000000001,342.25) translate(17 16.9)"/><use xlink:href="#o" transform="matrix(1,0,0,1,-726.5500000000001,342.25) translate(5.074999999999996 15.1)"/><use xlink:href="#p" transform="matrix(1,0,0,1,-596.7,342.25) translate(24.599999999999994 15.1)"/><use xlink:href="#q" transform="matrix(1,0,0,1,-596.7,342.25) translate(83.55 15.1)"/><use xlink:href="#r" transform="matrix(1,0,0,1,-770.5500000000001,370.25) translate(5.524999999999999 15.1)"/><use xlink:href="#s" transform="matrix(1,0,0,1,-726.5500000000001,370.25) translate(26.025 15.1)"/><use xlink:href="#d" transform="matrix(1,0,0,1,-596.7,370.25) translate(62.55 15.1)"/><use xlink:href="#i" transform="matrix(1,0,0,1,-770.5500000000001,398.25) translate(17 16.9)"/><use xlink:href="#t" transform="matrix(1,0,0,1,-726.5500000000001,398.25) translate(15.074999999999996 15.1)"/><use xlink:href="#k" transform="matrix(1,0,0,1,-596.7,398.25) translate(5.1499999999999915 15.1)"/><use xlink:href="#n" transform="matrix(1,0,0,1,-596.7,398.25) translate(85.05 15.1)"/><path d="M-660 566.5c0-2.76 2.24-5 5-5h332.65c2.76 0 5 2.24 5 5V655c0 2.76-2.24 5-5 5H-655c-2.76 0-5-2.24-5-5z" fill="#fff"/><path d="M-660 566.5c0-2.76 2.24-5 5-5h332.65c2.76 0 5 2.24 5 5V655c0 2.76-2.24 5-5 5H-655c-2.76 0-5-2.24-5-5zM-660 601.5h342.65M-616 601.5V660M-507.05 601.5V660" stroke="#666" stroke-width="2" fill="none"/><use xlink:href="#u" transform="matrix(1,0,0,1,-650,561.5) translate(125.225 23.6)"/><use xlink:href="#g" transform="matrix(1,0,0,1,-655,604) translate(5 15.1)"/><use xlink:href="#s" transform="matrix(1,0,0,1,-611,604) translate(15.524999999999999 15.1)"/><use xlink:href="#d" transform="matrix(1,0,0,1,-502.05000000000007,604) translate(62.55 15.1)"/><use xlink:href="#i" transform="matrix(1,0,0,1,-655,632) translate(17 16.9)"/><use xlink:href="#v" transform="matrix(1,0,0,1,-611,632) translate(5.024999999999999 15.1)"/><use xlink:href="#k" transform="matrix(1,0,0,1,-502.05000000000007,632) translate(5.1499999999999915 15.1)"/><use xlink:href="#w" transform="matrix(1,0,0,1,-502.05000000000007,632) translate(85.05 15.1)"/><path d="M-1406.2 468.6h310.33c2.76 0 5-2.24 5-5v-73.9c0-2.76 2.23-5 5-5h310.32" stroke="#999" stroke-width="2" fill="none"/><path d="M-775.55 374.7v1.12l-17.76 8.88 17.75 8.9v1.1l-.45.9-21.8-10.9 21.8-10.9z" fill="#999"/><path d="M-660 618.96h-368.1c-2.76 0-5-2.24-5-5V473.6c0-2.76-2.24-5-5-5h-368.1" stroke="#999" stroke-width="2" fill="none"/><path d="M-679 628.96h-2v-20h2zM-1383.96 468.6l-21.8 10.9-.66-1.34.22-.66v-.02l17.76-8.88-17.76-8.88v-1.12l.45-.9z" fill="#999"/><path d="M-640 1545c0-2.76 2.24-5 5-5h357.6c2.76 0 5 2.24 5 5v88.5c0 2.76-2.24 5-5 5H-635c-2.76 0-5-2.24-5-5z" fill="#fff"/><path d="M-640 1545c0-2.76 2.24-5 5-5h357.6c2.76 0 5 2.24 5 5v88.5c0 2.76-2.24 5-5 5H-635c-2.76 0-5-2.24-5-5zM-640 1580h367.6M-596 1580v58.5M-462.1 1580v58.5" stroke="#666" stroke-width="2" fill="none"/><use xlink:href="#x" transform="matrix(1,0,0,1,-630,1540) translate(117.05 23.6)"/><use xlink:href="#g" transform="matrix(1,0,0,1,-635,1582.5) translate(5 15.1)"/><use xlink:href="#x" transform="matrix(1,0,0,1,-591,1582.5) translate(5.049999999999997 15.1)"/><use xlink:href="#d" transform="matrix(1,0,0,1,-457.1,1582.5) translate(62.55 15.1)"/><use xlink:href="#i" transform="matrix(1,0,0,1,-635,1610.5) translate(17 16.9)"/><use xlink:href="#y" transform="matrix(1,0,0,1,-591,1610.5) translate(11.024999999999999 15.1)"/><use xlink:href="#k" transform="matrix(1,0,0,1,-457.1,1610.5) translate(5.1499999999999915 15.1)"/><use xlink:href="#z" transform="matrix(1,0,0,1,-457.1,1610.5) translate(85.05 15.1)"/><path d="M-1020 1225c0-2.76 2.24-5 5-5h360.6c2.76 0 5 2.24 5 5v228.5c0 2.76-2.24 5-5 5H-1015c-2.76 0-5-2.24-5-5z" fill="#fff"/><path d="M-1020 1225c0-2.76 2.24-5 5-5h360.6c2.76 0 5 2.24 5 5v228.5c0 2.76-2.24 5-5 5H-1015c-2.76 0-5-2.24-5-5zM-1020 1260h370.6M-976 1260v198.5M-849.1 1260v198.5" stroke="#666" stroke-width="2" fill="none"/><use xlink:href="#A" transform="matrix(1,0,0,1,-1010,1220) translate(121.275 23.6)"/><use xlink:href="#g" transform="matrix(1,0,0,1,-1015,1262.5) translate(5 15.1)"/><use xlink:href="#B" transform="matrix(1,0,0,1,-971,1262.5) translate(3.049999999999997 15.1)"/><use xlink:href="#d" transform="matrix(1,0,0,1,-844.1,1262.5) translate(67.55 15.1)"/><use xlink:href="#i" transform="matrix(1,0,0,1,-1015,1290.5) translate(17 16.9)"/><use xlink:href="#C" transform="matrix(1,0,0,1,-971,1290.5) translate(14.049999999999997 15.1)"/><use xlink:href="#d" transform="matrix(1,0,0,1,-844.1,1290.5) translate(67.55 15.1)"/><use xlink:href="#i" transform="matrix(1,0,0,1,-1015,1318.5) translate(17 16.9)"/><use xlink:href="#D" transform="matrix(1,0,0,1,-971,1318.5) translate(5.074999999999996 15.1)"/><use xlink:href="#p" transform="matrix(1,0,0,1,-844.1,1318.5) translate(29.599999999999994 15.1)"/><use xlink:href="#q" transform="matrix(1,0,0,1,-844.1,1318.5) translate(88.55 15.1)"/><use xlink:href="#i" transform="matrix(1,0,0,1,-1015,1346.5) translate(17 16.9)"/><use xlink:href="#E" transform="matrix(1,0,0,1,-971,1346.5) translate(5.049999999999997 15.1)"/><use xlink:href="#k" transform="matrix(1,0,0,1,-844.1,1346.5) translate(5.1499999999999915 15.1)"/><use xlink:href="#F" transform="matrix(1,0,0,1,-844.1,1346.5) translate(85.05 15.1)"/><use xlink:href="#i" transform="matrix(1,0,0,1,-1015,1374.5) translate(17 16.9)"/><use xlink:href="#x" transform="matrix(1,0,0,1,-971,1374.5) translate(1.5499999999999972 15.1)"/><use xlink:href="#d" transform="matrix(1,0,0,1,-844.1,1374.5) translate(67.55 15.1)"/><use xlink:href="#r" transform="matrix(1,0,0,1,-1015,1402.5) translate(5.524999999999999 15.1)"/><use xlink:href="#G" transform="matrix(1,0,0,1,-971,1402.5) translate(32.05 15.1)"/><use xlink:href="#d" transform="matrix(1,0,0,1,-844.1,1402.5) translate(67.55 15.1)"/><use xlink:href="#i" transform="matrix(1,0,0,1,-1015,1430.5) translate(17 16.9)"/><use xlink:href="#H" transform="matrix(1,0,0,1,-971,1430.5) translate(3.0999999999999943 15.1)"/><use xlink:href="#k" transform="matrix(1,0,0,1,-844.1,1430.5) translate(10.149999999999991 15.1)"/><use xlink:href="#n" transform="matrix(1,0,0,1,-844.1,1430.5) translate(90.05 15.1)"/><path d="M-1740 1204.75c0-2.76 2.24-5 5-5h366.6c2.76 0 5 2.24 5 5v256.5c0 2.76-2.24 5-5 5H-1735c-2.76 0-5-2.24-5-5z" fill="#fff"/><path d="M-1740 1204.75c0-2.76 2.24-5 5-5h366.6c2.76 0 5 2.24 5 5v256.5c0 2.76-2.24 5-5 5H-1735c-2.76 0-5-2.24-5-5zM-1740 1239.75h376.6M-1696 1239.75v226.5M-1563.1 1239.75v226.5" stroke="#666" stroke-width="2" fill="none"/><use xlink:href="#I" transform="matrix(1,0,0,1,-1730,1199.75) translate(148.55 23.6)"/><use xlink:href="#g" transform="matrix(1,0,0,1,-1735,1242.25) translate(5 15.1)"/><use xlink:href="#G" transform="matrix(1,0,0,1,-1691,1242.25) translate(35.05 15.1)"/><use xlink:href="#d" transform="matrix(1,0,0,1,-1558.1,1242.25) translate(67.55 15.1)"/><use xlink:href="#i" transform="matrix(1,0,0,1,-1735,1270.25) translate(17 16.9)"/><use xlink:href="#J" transform="matrix(1,0,0,1,-1691,1270.25) translate(24.549999999999997 15.1)"/><use xlink:href="#k" transform="matrix(1,0,0,1,-1558.1,1270.25) translate(10.149999999999991 15.1)"/><use xlink:href="#n" transform="matrix(1,0,0,1,-1558.1,1270.25) translate(90.05 15.1)"/><use xlink:href="#i" transform="matrix(1,0,0,1,-1735,1298.25) translate(17 16.9)"/><use xlink:href="#K" transform="matrix(1,0,0,1,-1691,1298.25) translate(33.575 15.1)"/><use xlink:href="#d" transform="matrix(1,0,0,1,-1558.1,1298.25) translate(67.55 15.1)"/><use xlink:href="#i" transform="matrix(1,0,0,1,-1735,1326.25) translate(17 16.9)"/><use xlink:href="#L" transform="matrix(1,0,0,1,-1691,1326.25) translate(20.049999999999997 15.1)"/><use xlink:href="#k" transform="matrix(1,0,0,1,-1558.1,1326.25) translate(5.1499999999999915 15.1)"/><use xlink:href="#M" transform="matrix(1,0,0,1,-1558.1,1326.25) translate(85.05 15.1)"/><use xlink:href="#i" transform="matrix(1,0,0,1,-1735,1354.25) translate(17 16.9)"/><use xlink:href="#N" transform="matrix(1,0,0,1,-1691,1354.25) translate(5.049999999999997 15.1)"/><use xlink:href="#k" transform="matrix(1,0,0,1,-1558.1,1354.25) translate(5.1499999999999915 15.1)"/><use xlink:href="#M" transform="matrix(1,0,0,1,-1558.1,1354.25) translate(85.05 15.1)"/><use xlink:href="#i" transform="matrix(1,0,0,1,-1735,1382.25) translate(17 16.9)"/><use xlink:href="#O" transform="matrix(1,0,0,1,-1691,1382.25) translate(22.574999999999996 15.1)"/><use xlink:href="#k" transform="matrix(1,0,0,1,-1558.1,1382.25) translate(5.1499999999999915 15.1)"/><use xlink:href="#P" transform="matrix(1,0,0,1,-1558.1,1382.25) translate(85.05 15.1)"/><use xlink:href="#r" transform="matrix(1,0,0,1,-1735,1410.25) translate(5.524999999999999 15.1)"/><use xlink:href="#s" transform="matrix(1,0,0,1,-1691,1410.25) translate(27.525 15.1)"/><use xlink:href="#d" transform="matrix(1,0,0,1,-1558.1,1410.25) translate(67.55 15.1)"/><use xlink:href="#i" transform="matrix(1,0,0,1,-1735,1438.25) translate(17 16.9)"/><use xlink:href="#Q" transform="matrix(1,0,0,1,-1691,1438.25) translate(27.574999999999996 15.1)"/><use xlink:href="#k" transform="matrix(1,0,0,1,-1558.1,1438.25) translate(10.149999999999991 15.1)"/><use xlink:href="#n" transform="matrix(1,0,0,1,-1558.1,1438.25) translate(90.05 15.1)"/><path d="M-660 618.96h-346.7c-2.76 0-5 2.24-5 5v795.65c0 2.77-2.24 5-5 5h-346.7" stroke="#999" stroke-width="2" fill="none"/><path d="M-679 628.96h-2v-20h2zM-1341.16 1424.6l-21.8 10.9-.44-.9v-1.1l17.76-8.9-17.76-8.87v-1.12l.45-.9z" fill="#999"/><path d="M-1363.4 1258.05h166.7c2.76 0 5 2.24 5 5v148.85c0 2.76 2.24 5 5 5h166.7" stroke="#999" stroke-width="2" fill="none"/><path d="M-1342.4 1268.05h-2v-20h2zM-1020 1406.9v1.12l-17.76 8.88 17.76 8.88v1.12l-.45.9-21.8-10.9 21.8-10.9z" fill="#999"/><path d="M-2260 1246.75c0-2.76 2.24-5 5-5h331.6c2.76 0 5 2.24 5 5v172.5c0 2.76-2.24 5-5 5H-2255c-2.76 0-5-2.24-5-5z" fill="#fff"/><path d="M-2260 1246.75c0-2.76 2.24-5 5-5h331.6c2.76 0 5 2.24 5 5v172.5c0 2.76-2.24 5-5 5H-2255c-2.76 0-5-2.24-5-5zM-2260 1281.75h341.6M-2216 1281.75v142.5M-2118.1 1281.75v142.5" stroke="#666" stroke-width="2" fill="none"/><use xlink:href="#R" transform="matrix(1,0,0,1,-2250,1241.75) translate(101.6 23.6)"/><use xlink:href="#g" transform="matrix(1,0,0,1,-2255,1284.25) translate(5 15.1)"/><use xlink:href="#S" transform="matrix(1,0,0,1,-2211,1284.25) translate(12.524999999999999 15.1)"/><use xlink:href="#d" transform="matrix(1,0,0,1,-2113.1,1284.25) translate(67.55 15.1)"/><use xlink:href="#i" transform="matrix(1,0,0,1,-2255,1312.25) translate(17 16.9)"/><use xlink:href="#T" transform="matrix(1,0,0,1,-2211,1312.25) translate(9.549999999999997 15.1)"/><use xlink:href="#k" transform="matrix(1,0,0,1,-2113.1,1312.25) translate(10.149999999999991 15.1)"/><use xlink:href="#w" transform="matrix(1,0,0,1,-2113.1,1312.25) translate(90.05 15.1)"/><use xlink:href="#i" transform="matrix(1,0,0,1,-2255,1340.25) translate(17 16.9)"/><use xlink:href="#U" transform="matrix(1,0,0,1,-2211,1340.25) translate(5.049999999999997 15.1)"/><use xlink:href="#k" transform="matrix(1,0,0,1,-2113.1,1340.25) translate(5.1499999999999915 15.1)"/><use xlink:href="#V" transform="matrix(1,0,0,1,-2113.1,1340.25) translate(85.05 15.1)"/><use xlink:href="#r" transform="matrix(1,0,0,1,-2255,1368.25) translate(5.524999999999999 15.1)"/><use xlink:href="#G" transform="matrix(1,0,0,1,-2211,1368.25) translate(17.549999999999997 15.1)"/><use xlink:href="#d" transform="matrix(1,0,0,1,-2113.1,1368.25) translate(67.55 15.1)"/><use xlink:href="#i" transform="matrix(1,0,0,1,-2255,1396.25) translate(17 16.9)"/><use xlink:href="#W" transform="matrix(1,0,0,1,-2211,1396.25) translate(12.574999999999996 15.1)"/><use xlink:href="#k" transform="matrix(1,0,0,1,-2113.1,1396.25) translate(10.149999999999991 15.1)"/><use xlink:href="#n" transform="matrix(1,0,0,1,-2113.1,1396.25) translate(90.05 15.1)"/><path d="M-1363.4 1258.05h35c2.76 0 5 2.24 5 5v238.2c0 2.76-2.24 5-5 5H-2295c-2.76 0-5-2.24-5-5v-113.48c0-2.76 2.24-5 5-5h35" stroke="#999" stroke-width="2" fill="none"/><path d="M-1342.4 1268.05h-2v-20h2zM-2260 1372.77v1.12l-17.76 8.87 17.76 8.88v1.12l-.45.9-21.8-10.9 21.8-10.9z" fill="#999"/><path d="M-1759.8 165c0-2.76 2.24-5 5-5h343.6c2.76 0 5 2.24 5 5v312.5c0 2.76-2.24 5-5 5h-343.6c-2.76 0-5-2.24-5-5z" fill="#fff"/><path d="M-1759.8 165c0-2.76 2.24-5 5-5h343.6c2.76 0 5 2.24 5 5v312.5c0 2.76-2.24 5-5 5h-343.6c-2.76 0-5-2.24-5-5zM-1759.8 200h353.6M-1715.8 200v282.5M-1585.9 200v282.5" stroke="#666" stroke-width="2" fill="none"/><use xlink:href="#X" transform="matrix(1,0,0,1,-1749.8,160) translate(124.9 23.6)"/><use xlink:href="#g" transform="matrix(1,0,0,1,-1754.8,202.5) translate(5 15.1)"/><use xlink:href="#Y" transform="matrix(1,0,0,1,-1710.8,202.5) translate(15.549999999999997 15.1)"/><use xlink:href="#d" transform="matrix(1,0,0,1,-1580.8999999999999,202.5) translate(57.55 15.1)"/><use xlink:href="#i" transform="matrix(1,0,0,1,-1754.8,230.5) translate(17 16.9)"/><use xlink:href="#Z" transform="matrix(1,0,0,1,-1710.8,230.5) translate(14.599999999999994 15.1)"/><use xlink:href="#aa" transform="matrix(1,0,0,1,-1580.8999999999999,230.5) translate(67.5 15.1)"/><use xlink:href="#i" transform="matrix(1,0,0,1,-1754.8,258.5) translate(17 16.9)"/><use xlink:href="#ab" transform="matrix(1,0,0,1,-1710.8,258.5) translate(25.549999999999997 15.1)"/><use xlink:href="#aa" transform="matrix(1,0,0,1,-1580.8999999999999,258.5) translate(67.5 15.1)"/><use xlink:href="#i" transform="matrix(1,0,0,1,-1754.8,286.5) translate(17 16.9)"/><use xlink:href="#ac" transform="matrix(1,0,0,1,-1710.8,286.5) translate(13.549999999999997 15.1)"/><use xlink:href="#d" transform="matrix(1,0,0,1,-1580.8999999999999,286.5) translate(57.55 15.1)"/><use xlink:href="#i" transform="matrix(1,0,0,1,-1754.8,314.5) translate(17 16.9)"/><use xlink:href="#ad" transform="matrix(1,0,0,1,-1710.8,314.5) translate(16.049999999999997 15.1)"/><use xlink:href="#d" transform="matrix(1,0,0,1,-1580.8999999999999,314.5) translate(57.55 15.1)"/><use xlink:href="#r" transform="matrix(1,0,0,1,-1754.8,342.5) translate(5.524999999999999 15.1)"/><use xlink:href="#ae" transform="matrix(1,0,0,1,-1710.8,342.5) translate(25.549999999999997 15.1)"/><use xlink:href="#d" transform="matrix(1,0,0,1,-1580.8999999999999,342.5) translate(57.55 15.1)"/><use xlink:href="#r" transform="matrix(1,0,0,1,-1754.8,370.5) translate(5.524999999999999 15.1)"/><use xlink:href="#af" transform="matrix(1,0,0,1,-1710.8,370.5) translate(23.574999999999996 15.1)"/><use xlink:href="#d" transform="matrix(1,0,0,1,-1580.8999999999999,370.5) translate(57.55 15.1)"/><use xlink:href="#r" transform="matrix(1,0,0,1,-1754.8,398.5) translate(5.524999999999999 15.1)"/><use xlink:href="#s" transform="matrix(1,0,0,1,-1710.8,398.5) translate(26.025 15.1)"/><use xlink:href="#d" transform="matrix(1,0,0,1,-1580.8999999999999,398.5) translate(57.55 15.1)"/><use xlink:href="#r" transform="matrix(1,0,0,1,-1754.8,426.5) translate(5.524999999999999 15.1)"/><use xlink:href="#ag" transform="matrix(1,0,0,1,-1710.8,426.5) translate(5.049999999999997 15.1)"/><use xlink:href="#k" transform="matrix(1,0,0,1,-1580.8999999999999,426.5) translate(5.1499999999999915 15.1)"/><use xlink:href="#ah" transform="matrix(1,0,0,1,-1580.8999999999999,426.5) translate(85.05 15.1)"/><use xlink:href="#r" transform="matrix(1,0,0,1,-1754.8,454.5) translate(5.524999999999999 15.1)"/><use xlink:href="#G" transform="matrix(1,0,0,1,-1710.8,454.5) translate(33.55 15.1)"/><use xlink:href="#d" transform="matrix(1,0,0,1,-1580.8999999999999,454.5) translate(57.55 15.1)"/><path d="M-660 618.96h-368.1c-2.76 0-5-2.24-5-5V418c0-2.77-2.24-5-5-5h-368.1" stroke="#999" stroke-width="2" fill="none"/><path d="M-679 628.96h-2v-20h2zM-1383.96 413l-21.8 10.9-.44-.9v-1.12l17.76-8.88-17.76-8.9V403l.45-.9z" fill="#999"/><path d="M-1740 1258.05h-54.8c-2.76 0-5-2.24-5-5V473.6c0-2.76 2.24-5 5-5h35" stroke="#999" stroke-width="2" fill="none"/><path d="M-1759 1268.05h-2v-20h2zM-1759.8 458.6v1.12l-17.76 8.88 17.76 8.88v.02l.13.83-.58 1.16-21.8-10.9 21.8-10.9z" fill="#999"/><path d="M-1180 204c0-2.76 2.24-5 5-5h246.8c2.76 0 5 2.24 5 5v144.5c0 2.76-2.24 5-5 5H-1175c-2.76 0-5-2.24-5-5z" fill="#fff"/><path d="M-1180 204c0-2.76 2.24-5 5-5h246.8c2.76 0 5 2.24 5 5v144.5c0 2.76-2.24 5-5 5H-1175c-2.76 0-5-2.24-5-5zM-1180 239h256.8M-1108.05 239v114.5M-998.1 239v114.5" stroke="#666" stroke-width="2" fill="none"/><use xlink:href="#ai" transform="matrix(1,0,0,1,-1170,199) translate(29.000000000000014 23.6)"/><use xlink:href="#b" transform="matrix(1,0,0,1,-1175,241.5) translate(5.024999999999999 15.1)"/><use xlink:href="#Y" transform="matrix(1,0,0,1,-1103.05,241.5) translate(5.549999999999997 15.1)"/><use xlink:href="#d" transform="matrix(1,0,0,1,-993.1,241.5) translate(5.049999999999997 15.1)"/><use xlink:href="#b" transform="matrix(1,0,0,1,-1175,269.5) translate(5.024999999999999 15.1)"/><use xlink:href="#h" transform="matrix(1,0,0,1,-1103.05,269.5) translate(5.024999999999999 15.1)"/><use xlink:href="#d" transform="matrix(1,0,0,1,-993.1,269.5) translate(5.049999999999997 15.1)"/><use xlink:href="#i" transform="matrix(1,0,0,1,-1175,297.5) translate(31 16.9)"/><use xlink:href="#aj" transform="matrix(1,0,0,1,-1103.05,297.5) translate(16.025 15.1)"/><use xlink:href="#d" transform="matrix(1,0,0,1,-993.1,297.5) translate(5.049999999999997 15.1)"/><use xlink:href="#i" transform="matrix(1,0,0,1,-1175,325.5) translate(31 16.9)"/><use xlink:href="#ak" transform="matrix(1,0,0,1,-1103.05,325.5) translate(28 15.1)"/><use xlink:href="#aa" transform="matrix(1,0,0,1,-993.1,325.5) translate(15 15.1)"/><path d="M-1406.2 218.38h108.1c2.76 0 5 2.24 5 5v28.56c0 2.76 2.24 5 5 5h108.1" stroke="#999" stroke-width="2" fill="none"/><path d="M-1385.2 228.38h-2v-20h2zM-1180 246.94v1.12l-17.76 8.88 17.76 8.88v1.12l-.45.9-21.8-10.9 21.8-10.9z" fill="#999"/><path d="M-775.55 273.9h-68.83c-2.76 0-5 2.25-5 5v.63c0 2.76-2.23 5-5 5h-68.82" stroke="#999" stroke-width="2" fill="none"/><path d="M-794.55 283.9h-2v-20h2zM-900.96 284.53l-21.8 10.9-.44-.9v-1.12l17.76-8.87-17.76-8.9v-1.1l.45-.9z" fill="#999"/><path d="M-1280 931.5c0-2.76 2.24-5 5-5h267.75c2.76 0 5 2.24 5 5V1048c0 2.76-2.24 5-5 5H-1275c-2.76 0-5-2.24-5-5z" fill="#fff"/><path d="M-1280 931.5c0-2.76 2.24-5 5-5h267.75c2.76 0 5 2.24 5 5V1048c0 2.76-2.24 5-5 5H-1275c-2.76 0-5-2.24-5-5zM-1280 966.5h277.75M-1208.05 966.5v86.5M-1077.15 966.5v86.5" stroke="#666" stroke-width="2" fill="none"/><use xlink:href="#al" transform="matrix(1,0,0,1,-1270,926.5) translate(28.17500000000001 23.6)"/><use xlink:href="#b" transform="matrix(1,0,0,1,-1275,969) translate(5.024999999999999 15.1)"/><use xlink:href="#Y" transform="matrix(1,0,0,1,-1203.05,969) translate(16.049999999999997 15.1)"/><use xlink:href="#d" transform="matrix(1,0,0,1,-1072.15,969) translate(5.049999999999997 15.1)"/><use xlink:href="#b" transform="matrix(1,0,0,1,-1275,997) translate(5.024999999999999 15.1)"/><use xlink:href="#B" transform="matrix(1,0,0,1,-1203.05,997) translate(5.049999999999997 15.1)"/><use xlink:href="#d" transform="matrix(1,0,0,1,-1072.15,997) translate(5.049999999999997 15.1)"/><use xlink:href="#i" transform="matrix(1,0,0,1,-1275,1025) translate(31 16.9)"/><use xlink:href="#am" transform="matrix(1,0,0,1,-1203.05,1025) translate(29.025 15.1)"/><use xlink:href="#d" transform="matrix(1,0,0,1,-1072.15,1025) translate(5.049999999999997 15.1)"/><path d="M-1406.2 218.38h58.1c2.76 0 5 2.24 5 5v755.87c0 2.76 2.24 5 5 5h58.1" stroke="#999" stroke-width="2" fill="none"/><path d="M-1385.2 228.38h-2v-20h2zM-1280 974.25v1.12l-17.76 8.88 17.76 8.88v1.12l-.45.9-21.8-10.9 21.8-10.9z" fill="#999"/><path d="M-649.4 1278.24h35c2.76 0 5-2.24 5-5V1141.5c0-2.76-2.24-5-5-5H-1315c-2.76 0-5-2.24-5-5v-114.75c0-2.76 2.24-5 5-5h35" stroke="#999" stroke-width="2" fill="none"/><path d="M-628.4 1288.24h-2v-20h2zM-1280 1001.75v1.12l-17.76 8.88 17.76 8.88v1.12l-.45.9-21.8-10.9 21.8-10.9z" fill="#999"/><path d="M-2160 931c0-2.76 2.24-5 5-5h245.75c2.76 0 5 2.24 5 5v116.5c0 2.76-2.24 5-5 5H-2155c-2.76 0-5-2.24-5-5z" fill="#fff"/><path d="M-2160 931c0-2.76 2.24-5 5-5h245.75c2.76 0 5 2.24 5 5v116.5c0 2.76-2.24 5-5 5H-2155c-2.76 0-5-2.24-5-5zM-2160 966h255.75M-2088.05 966v86.5M-1979.15 966v86.5" stroke="#666" stroke-width="2" fill="none"/><use xlink:href="#an" transform="matrix(1,0,0,1,-2150,926) translate(47.925 23.6)"/><use xlink:href="#b" transform="matrix(1,0,0,1,-2155,968.5) translate(5.024999999999999 15.1)"/><use xlink:href="#Y" transform="matrix(1,0,0,1,-2083.05,968.5) translate(5.049999999999997 15.1)"/><use xlink:href="#d" transform="matrix(1,0,0,1,-1974.15,968.5) translate(5.049999999999997 15.1)"/><use xlink:href="#b" transform="matrix(1,0,0,1,-2155,996.5) translate(5.024999999999999 15.1)"/><use xlink:href="#S" transform="matrix(1,0,0,1,-2083.05,996.5) translate(18.025 15.1)"/><use xlink:href="#d" transform="matrix(1,0,0,1,-1974.15,996.5) translate(5.049999999999997 15.1)"/><use xlink:href="#i" transform="matrix(1,0,0,1,-2155,1024.5) translate(31 16.9)"/><use xlink:href="#aj" transform="matrix(1,0,0,1,-2083.05,1024.5) translate(15.524999999999999 15.1)"/><use xlink:href="#d" transform="matrix(1,0,0,1,-1974.15,1024.5) translate(5.049999999999997 15.1)"/><path d="M-1406.2 218.38h35c2.76 0 5 2.24 5 5v475.87c0 2.76-2.24 5-5 5H-2195c-2.76 0-5 2.24-5 5v269.5c0 2.76 2.24 5 5 5h35" stroke="#999" stroke-width="2" fill="none"/><path d="M-1385.2 228.38h-2v-20h2zM-2160 973.75v1.12l-17.76 8.88 17.76 8.88v1.12l-.45.9-21.8-10.9 21.8-10.9z" fill="#999"/><path d="M-2260 1299.82h-35c-2.76 0-5-2.24-5-5v-142.7c0-2.76 2.24-5 5-5h425.75c2.76 0 5-2.23 5-5v-125.87c0-2.76-2.24-5-5-5h-35" stroke="#999" stroke-width="2" fill="none"/><path d="M-2279 1309.82h-2v-20h2zM-1882 1011.25l-21.8 10.9-.45-.9v-1.12l17.76-8.88-17.75-8.88v-1.12l.45-.9z" fill="#999"/><path d="M-1780 845c0-2.76 2.24-5 5-5h383.5c2.76 0 5 2.24 5 5v228.5c0 2.76-2.24 5-5 5H-1775c-2.76 0-5-2.24-5-5z" fill="#fff"/><path d="M-1780 845c0-2.76 2.24-5 5-5h383.5c2.76 0 5 2.24 5 5v228.5c0 2.76-2.24 5-5 5H-1775c-2.76 0-5-2.24-5-5zM-1780 880h393.5M-1736 880v198.5M-1576.2 880v198.5" stroke="#666" stroke-width="2" fill="none"/><use xlink:href="#ao" transform="matrix(1,0,0,1,-1770,840) translate(125.79999999999998 23.6)"/><use xlink:href="#g" transform="matrix(1,0,0,1,-1775,882.5) translate(5 15.1)"/><use xlink:href="#ag" transform="matrix(1,0,0,1,-1731,882.5) translate(20.049999999999997 15.1)"/><use xlink:href="#k" transform="matrix(1,0,0,1,-1571.2,882.5) translate(10.149999999999991 15.1)"/><use xlink:href="#ah" transform="matrix(1,0,0,1,-1571.2,882.5) translate(90.05 15.1)"/><use xlink:href="#i" transform="matrix(1,0,0,1,-1775,910.5) translate(17 16.9)"/><use xlink:href="#ap" transform="matrix(1,0,0,1,-1731,910.5) translate(5.099999999999994 15.1)"/><use xlink:href="#k" transform="matrix(1,0,0,1,-1571.2,910.5) translate(5.1499999999999915 15.1)"/><use xlink:href="#aq" transform="matrix(1,0,0,1,-1571.2,910.5) translate(85.05 15.1)"/><use xlink:href="#i" transform="matrix(1,0,0,1,-1775,938.5) translate(17 16.9)"/><use xlink:href="#ar" transform="matrix(1,0,0,1,-1731,938.5) translate(18.574999999999996 15.1)"/><use xlink:href="#d" transform="matrix(1,0,0,1,-1571.2,938.5) translate(62.55 15.1)"/><use xlink:href="#i" transform="matrix(1,0,0,1,-1775,966.5) translate(17 16.9)"/><use xlink:href="#as" transform="matrix(1,0,0,1,-1731,966.5) translate(14.574999999999996 15.1)"/><use xlink:href="#p" transform="matrix(1,0,0,1,-1571.2,966.5) translate(24.599999999999994 15.1)"/><use xlink:href="#q" transform="matrix(1,0,0,1,-1571.2,966.5) translate(83.55 15.1)"/><use xlink:href="#i" transform="matrix(1,0,0,1,-1775,994.5) translate(17 16.9)"/><use xlink:href="#x" transform="matrix(1,0,0,1,-1731,994.5) translate(18.049999999999997 15.1)"/><use xlink:href="#d" transform="matrix(1,0,0,1,-1571.2,994.5) translate(62.55 15.1)"/><use xlink:href="#r" transform="matrix(1,0,0,1,-1775,1022.5) translate(5.524999999999999 15.1)"/><use xlink:href="#G" transform="matrix(1,0,0,1,-1731,1022.5) translate(48.55 15.1)"/><use xlink:href="#d" transform="matrix(1,0,0,1,-1571.2,1022.5) translate(62.55 15.1)"/><use xlink:href="#i" transform="matrix(1,0,0,1,-1775,1050.5) translate(17 16.9)"/><use xlink:href="#at" transform="matrix(1,0,0,1,-1731,1050.5) translate(20.099999999999994 15.1)"/><use xlink:href="#k" transform="matrix(1,0,0,1,-1571.2,1050.5) translate(5.1499999999999915 15.1)"/><use xlink:href="#n" transform="matrix(1,0,0,1,-1571.2,1050.5) translate(85.05 15.1)"/><path d="M-1780 898.24h-35c-2.76 0-5-2.24-5-5v-227c0-2.75 2.24-5 5-5h443.8c2.76 0 5-2.23 5-5V445.8c0-2.76-2.24-5-5-5h-35" stroke="#999" stroke-width="2" fill="none"/><path d="M-1799 908.24h-2v-20h2zM-1383.96 440.8l-21.8 10.9-.44-.9v-1.12l17.76-8.88-17.76-8.88v-1.12l.45-.9z" fill="#999"/><path d="M-1363.4 1258.05h35c2.76 0 5-2.24 5-5v-108.92c0-2.77-2.24-5-5-5H-1815c-2.76 0-5-2.24-5-5v-92.23c0-2.76 2.24-5 5-5h35" stroke="#999" stroke-width="2" fill="none"/><path d="M-1342.4 1268.05h-2v-20h2zM-1780 1026.9v1.12l-17.76 8.88 17.76 8.88v1.12l-.45.9-21.8-10.9 21.8-10.9z" fill="#999"/><path d="M-2271.72 281.5c0-2.76 2.23-5 5-5h355.44c2.77 0 5 2.24 5 5V510c0 2.76-2.23 5-5 5h-355.44c-2.77 0-5-2.24-5-5z" fill="#fff"/><path d="M-2271.72 281.5c0-2.76 2.23-5 5-5h355.44c2.77 0 5 2.24 5 5V510c0 2.76-2.23 5-5 5h-355.44c-2.77 0-5-2.24-5-5zM-2271.72 316.5h365.44M-2227.72 316.5V515M-2105.97 316.5V515" stroke="#666" stroke-width="2" fill="none"/><use xlink:href="#au" transform="matrix(1,0,0,1,-2261.725,276.5) translate(132.075 23.6)"/><use xlink:href="#g" transform="matrix(1,0,0,1,-2266.725,319) translate(5 15.1)"/><use xlink:href="#af" transform="matrix(1,0,0,1,-2222.725,319) translate(19.574999999999996 15.1)"/><use xlink:href="#d" transform="matrix(1,0,0,1,-2100.975,319) translate(67.55 15.1)"/><use xlink:href="#i" transform="matrix(1,0,0,1,-2266.725,347) translate(17 16.9)"/><use xlink:href="#av" transform="matrix(1,0,0,1,-2222.725,347) translate(9.074999999999996 15.1)"/><use xlink:href="#k" transform="matrix(1,0,0,1,-2100.975,347) translate(10.149999999999991 15.1)"/><use xlink:href="#w" transform="matrix(1,0,0,1,-2100.975,347) translate(90.05 15.1)"/><use xlink:href="#i" transform="matrix(1,0,0,1,-2266.725,375) translate(17 16.9)"/><use xlink:href="#aw" transform="matrix(1,0,0,1,-2222.725,375) translate(11.549999999999997 15.1)"/><use xlink:href="#k" transform="matrix(1,0,0,1,-2100.975,375) translate(10.149999999999991 15.1)"/><use xlink:href="#w" transform="matrix(1,0,0,1,-2100.975,375) translate(90.05 15.1)"/><use xlink:href="#i" transform="matrix(1,0,0,1,-2266.725,403) translate(17 16.9)"/><use xlink:href="#ax" transform="matrix(1,0,0,1,-2222.725,403) translate(5.124999999999993 15.1)"/><use xlink:href="#k" transform="matrix(1,0,0,1,-2100.975,403) translate(10.149999999999991 15.1)"/><use xlink:href="#l" transform="matrix(1,0,0,1,-2100.975,403) translate(90.05 15.1)"/><use xlink:href="#i" transform="matrix(1,0,0,1,-2266.725,431) translate(17 16.9)"/><use xlink:href="#ay" transform="matrix(1,0,0,1,-2222.725,431) translate(7.549999999999997 15.1)"/><use xlink:href="#k" transform="matrix(1,0,0,1,-2100.975,431) translate(5.1499999999999915 15.1)"/><use xlink:href="#P" transform="matrix(1,0,0,1,-2100.975,431) translate(85.05 15.1)"/><use xlink:href="#i" transform="matrix(1,0,0,1,-2266.725,459) translate(17 16.9)"/><use xlink:href="#az" transform="matrix(1,0,0,1,-2222.725,459) translate(12.549999999999997 15.1)"/><use xlink:href="#aA" transform="matrix(1,0,0,1,-2100.975,459) translate(63.025 15.1)"/><use xlink:href="#i" transform="matrix(1,0,0,1,-2266.725,487) translate(17 16.9)"/><use xlink:href="#aB" transform="matrix(1,0,0,1,-2222.725,487) translate(46.05 15.1)"/><g><use xlink:href="#k" transform="matrix(1,0,0,1,-2100.975,487) translate(10.149999999999991 15.1)"/><use xlink:href="#aq" transform="matrix(1,0,0,1,-2100.975,487) translate(90.05 15.1)"/></g><path d="M-2271.72 334.74h-35c-2.77 0-5 2.24-5 5V550c0 2.76 2.23 5 5 5h935.52c2.76 0 5-2.24 5-5V390.2c0-2.77-2.24-5-5-5h-35" stroke="#999" stroke-width="2" fill="none"/><path d="M-2290.72 344.74h-2v-20h2zM-1383.96 385.2l-21.8 10.9-.44-.9v-1.12l17.76-8.9-17.76-8.87v-1.1l.45-.9z" fill="#999"/><path d="M-1906.27 334.74h35c2.76 0 5 2.24 5 5v372.72c0 2.76-2.24 5-5 5h-456.03" stroke="#999" stroke-width="2" fill="none"/><path d="M-1885.28 344.74h-2v-20h2zM-2305.06 717.46l-21.8 10.9-.44-.9v-1.12l17.76-8.88-17.76-8.88v-1.12l.45-.9z" fill="#999"/><path d="M-1906.27 334.74h35c2.76 0 5 2.24 5 5v400.08c0 2.76-2.24 5-5 5h-456.03" stroke="#999" stroke-width="2" fill="none"/><path d="M-1885.28 344.74h-2v-20h2zM-2305.06 744.82l-21.8 10.9-.7-1.42.18-.56 17.84-8.92-17.76-8.88v-1.12l.45-.9z" fill="#999"/><path d="M-2280 105c0-2.76 2.24-5 5-5h190c2.76 0 5 2.24 5 5v88.5c0 2.76-2.24 5-5 5h-190c-2.76 0-5-2.24-5-5z" fill="#fff"/><path d="M-2280 105c0-2.76 2.24-5 5-5h190c2.76 0 5 2.24 5 5v88.5c0 2.76-2.24 5-5 5h-190c-2.76 0-5-2.24-5-5zM-2280 140h200M-2220 140v58.5M-2150 140v58.5" stroke="#666" stroke-width="2" fill="none"/><g><use xlink:href="#aC" transform="matrix(1,0,0,1,-2270,100) translate(48.12499999999999 23.6)"/></g><g><use xlink:href="#g" transform="matrix(1,0,0,1,-2275,142.5) translate(13 15.1)"/></g><g><use xlink:href="#aD" transform="matrix(1,0,0,1,-2215,142.5) translate(-7.424999999999997 15.1)"/></g><g><use xlink:href="#d" transform="matrix(1,0,0,1,-2145,142.5) translate(2.549999999999997 15.1)"/></g><g><use xlink:href="#i" transform="matrix(1,0,0,1,-2275,170.5) translate(25 16.9)"/></g><g><use xlink:href="#aE" transform="matrix(1,0,0,1,-2215,170.5) translate(4.524999999999999 15.1)"/></g><g><use xlink:href="#aF" transform="matrix(1,0,0,1,-2145,170.5) translate(13.024999999999999 15.1)"/></g><path d="M-2080 157.46h155.1c2.76 0 5 2.24 5 5V352.4c0 2.75 2.24 5 5 5h155.1" stroke="#999" stroke-width="2" fill="none"/><path d="M-2059 167.46h-2v-20h2zM-1778.8 367.4h-2v-20h2z" fill="#999"/><defs><path fill="#333" d="M205 0l-28-72H64L36 0H1l101-248h38L239 0h-34zm-38-99l-47-123c-12 45-31 82-46 123h93" id="aG"/><path fill="#333" d="M30-248c118-7 216 8 213 122C240-48 200 0 122 0H30v-248zM63-27c89 8 146-16 146-99s-60-101-146-95v194" id="aH"/><path fill="#333" d="M240 0l2-218c-23 76-54 145-80 218h-23L58-218 59 0H30v-248h44l77 211c21-75 51-140 76-211h43V0h-30" id="aI"/><path fill="#333" d="M33 0v-248h34V0H33" id="aJ"/><path fill="#333" d="M190 0L58-211 59 0H30v-248h39L202-35l-2-213h31V0h-41" id="aK"/><path fill="#333" d="M141 0L90-78 38 0H4l68-98-65-92h35l48 74 47-74h35l-64 92 68 98h-35" id="aL"/><path fill="#333" d="M212-179c-10-28-35-45-73-45-59 0-87 40-87 99 0 60 29 101 89 101 43 0 62-24 78-52l27 14C228-24 195 4 139 4 59 4 22-46 18-125c-6-104 99-153 187-111 19 9 31 26 39 46" id="aM"/><path fill="#333" d="M30 0v-248h33v221h125V0H30" id="aN"/><path fill="#333" d="M30 0v-248h187v28H63v79h144v27H63v87h162V0H30" id="aO"/><path fill="#333" d="M127-220V0H93v-220H8v-28h204v28h-85" id="aP"/><g id="a"><use transform="matrix(0.05,0,0,0.05,0,0)" xlink:href="#aG"/><use transform="matrix(0.05,0,0,0.05,12,0)" xlink:href="#aH"/><use transform="matrix(0.05,0,0,0.05,24.950000000000003,0)" xlink:href="#aI"/><use transform="matrix(0.05,0,0,0.05,39.900000000000006,0)" xlink:href="#aJ"/><use transform="matrix(0.05,0,0,0.05,44.900000000000006,0)" xlink:href="#aK"/><use transform="matrix(0.05,0,0,0.05,57.85,0)" xlink:href="#aL"/><use transform="matrix(0.05,0,0,0.05,66.85000000000001,0)" xlink:href="#aM"/><use transform="matrix(0.05,0,0,0.05,79.80000000000001,0)" xlink:href="#aN"/><use transform="matrix(0.05,0,0,0.05,89.80000000000001,0)" xlink:href="#aJ"/><use transform="matrix(0.05,0,0,0.05,94.80000000000001,0)" xlink:href="#aO"/><use transform="matrix(0.05,0,0,0.05,106.80000000000001,0)" xlink:href="#aK"/><use transform="matrix(0.05,0,0,0.05,119.75,0)" xlink:href="#aP"/><use transform="matrix(0.05,0,0,0.05,130.70000000000002,0)" xlink:href="#aO"/></g><path fill="#333" d="M30-248c87 1 191-15 191 75 0 78-77 80-158 76V0H30v-248zm33 125c57 0 124 11 124-50 0-59-68-47-124-48v98" id="aQ"/><path fill="#333" d="M194 0L95-120 63-95V0H30v-248h33v124l119-124h40L117-140 236 0h-42" id="aR"/><path fill="#333" d="M68-38c1 34 0 65-14 84H32c9-13 17-26 17-46H33v-38h35" id="aS"/><path fill="#333" d="M63-220v92h138v28H63V0H30v-248h175v28H63" id="aT"/><g id="b"><use transform="matrix(0.05,0,0,0.05,0,0)" xlink:href="#aQ"/><use transform="matrix(0.05,0,0,0.05,12,0)" xlink:href="#aR"/><use transform="matrix(0.05,0,0,0.05,24,0)" xlink:href="#aS"/><use transform="matrix(0.05,0,0,0.05,29,0)" xlink:href="#aT"/><use transform="matrix(0.05,0,0,0.05,39.95,0)" xlink:href="#aR"/></g><path fill="#333" d="M24-231v-30h32v30H24zM24 0v-190h32V0H24" id="aU"/><path fill="#333" d="M85-194c31 0 48 13 60 33l-1-100h32l1 261h-30c-2-10 0-23-3-31C134-8 116 4 85 4 32 4 16-35 15-94c0-66 23-100 70-100zm9 24c-40 0-46 34-46 75 0 40 6 74 45 74 42 0 51-32 51-76 0-42-9-74-50-73" id="aV"/><path fill="#333" d="M141-36C126-15 110 5 73 4 37 3 15-17 15-53c-1-64 63-63 125-63 3-35-9-54-41-54-24 1-41 7-42 31l-33-3c5-37 33-52 76-52 45 0 72 20 72 64v82c-1 20 7 32 28 27v20c-31 9-61-2-59-35zM48-53c0 20 12 33 32 33 41-3 63-29 60-74-43 2-92-5-92 41" id="aW"/><path fill="#333" d="M210-169c-67 3-38 105-44 169h-31v-121c0-29-5-50-35-48C34-165 62-65 56 0H25l-1-190h30c1 10-1 24 2 32 10-44 99-50 107 0 11-21 27-35 58-36 85-2 47 119 55 194h-31v-121c0-29-5-49-35-48" id="aX"/><path fill="#333" d="M117-194c89-4 53 116 60 194h-32v-121c0-31-8-49-39-48C34-167 62-67 57 0H25l-1-190h30c1 10-1 24 2 32 11-22 29-35 61-36" id="aY"/><g id="c"><use transform="matrix(0.05,0,0,0.05,0,0)" xlink:href="#aU"/><use transform="matrix(0.05,0,0,0.05,3.95,0)" xlink:href="#aV"/><use transform="matrix(0.05,0,0,0.05,13.949999999999998,0)" xlink:href="#aW"/><use transform="matrix(0.05,0,0,0.05,23.95,0)" xlink:href="#aV"/><use transform="matrix(0.05,0,0,0.05,33.95,0)" xlink:href="#aX"/><use transform="matrix(0.05,0,0,0.05,48.900000000000006,0)" xlink:href="#aU"/><use transform="matrix(0.05,0,0,0.05,52.85,0)" xlink:href="#aY"/></g><path fill="#333" d="M59-47c-2 24 18 29 38 22v24C64 9 27 4 27-40v-127H5v-23h24l9-43h21v43h35v23H59v120" id="aZ"/><path fill="#333" d="M100-194c63 0 86 42 84 106H49c0 40 14 67 53 68 26 1 43-12 49-29l28 8c-11 28-37 45-77 45C44 4 14-33 15-96c1-61 26-98 85-98zm52 81c6-60-76-77-97-28-3 7-6 17-6 28h103" id="ba"/><path fill="#333" d="M177-190C167-65 218 103 67 71c-23-6-38-20-44-43l32-5c15 47 100 32 89-28v-30C133-14 115 1 83 1 29 1 15-40 15-95c0-56 16-97 71-98 29-1 48 16 59 35 1-10 0-23 2-32h30zM94-22c36 0 50-32 50-73 0-42-14-75-50-75-39 0-46 34-46 75s6 73 46 73" id="bb"/><path fill="#333" d="M114-163C36-179 61-72 57 0H25l-1-190h30c1 12-1 29 2 39 6-27 23-49 58-41v29" id="bc"/><g id="d"><use transform="matrix(0.05,0,0,0.05,0,0)" xlink:href="#aU"/><use transform="matrix(0.05,0,0,0.05,3.95,0)" xlink:href="#aY"/><use transform="matrix(0.05,0,0,0.05,13.949999999999998,0)" xlink:href="#aZ"/><use transform="matrix(0.05,0,0,0.05,18.95,0)" xlink:href="#ba"/><use transform="matrix(0.05,0,0,0.05,28.950000000000003,0)" xlink:href="#bb"/><use transform="matrix(0.05,0,0,0.05,38.95,0)" xlink:href="#ba"/><use transform="matrix(0.05,0,0,0.05,48.95,0)" xlink:href="#bc"/></g><path fill="#333" d="M96-169c-40 0-48 33-48 73s9 75 48 75c24 0 41-14 43-38l32 2c-6 37-31 61-74 61-59 0-76-41-82-99-10-93 101-131 147-64 4 7 5 14 7 22l-32 3c-4-21-16-35-41-35" id="bd"/><path fill="#333" d="M24 0v-261h32V0H24" id="be"/><g id="e"><use transform="matrix(0.05,0,0,0.05,0,0)" xlink:href="#aU"/><use transform="matrix(0.05,0,0,0.05,3.95,0)" xlink:href="#aV"/><use transform="matrix(0.05,0,0,0.05,13.949999999999998,0)" xlink:href="#bd"/><use transform="matrix(0.05,0,0,0.05,22.95,0)" xlink:href="#be"/><use transform="matrix(0.05,0,0,0.05,26.899999999999995,0)" xlink:href="#aU"/><use transform="matrix(0.05,0,0,0.05,30.849999999999994,0)" xlink:href="#ba"/><use transform="matrix(0.05,0,0,0.05,40.849999999999994,0)" xlink:href="#aY"/><use transform="matrix(0.05,0,0,0.05,50.849999999999994,0)" xlink:href="#aZ"/><use transform="matrix(0.05,0,0,0.05,55.849999999999994,0)" xlink:href="#ba"/></g><path fill="#333" d="M233-177c-1 41-23 64-60 70L243 0h-38l-65-103H63V0H30v-248c88 3 205-21 203 71zM63-129c60-2 137 13 137-47 0-61-80-42-137-45v92" id="bf"/><g id="f"><use transform="matrix(0.05,0,0,0.05,0,0)" xlink:href="#aO"/><use transform="matrix(0.05,0,0,0.05,12,0)" xlink:href="#aK"/><use transform="matrix(0.05,0,0,0.05,24.950000000000003,0)" xlink:href="#aP"/><use transform="matrix(0.05,0,0,0.05,35.900000000000006,0)" xlink:href="#bf"/><use transform="matrix(0.05,0,0,0.05,48.85000000000001,0)" xlink:href="#aG"/><use transform="matrix(0.05,0,0,0.05,60.85,0)" xlink:href="#aH"/><use transform="matrix(0.05,0,0,0.05,73.80000000000001,0)" xlink:href="#aG"/></g><g id="g"><use transform="matrix(0.05,0,0,0.05,0,0)" xlink:href="#aQ"/><use transform="matrix(0.05,0,0,0.05,12,0)" xlink:href="#aR"/></g><path fill="#333" d="M100-194c62-1 85 37 85 99 1 63-27 99-86 99S16-35 15-95c0-66 28-99 85-99zM99-20c44 1 53-31 53-75 0-43-8-75-51-75s-53 32-53 75 10 74 51 75" id="bg"/><g id="h"><use transform="matrix(0.05,0,0,0.05,0,0)" xlink:href="#bd"/><use transform="matrix(0.05,0,0,0.05,9,0)" xlink:href="#bg"/><use transform="matrix(0.05,0,0,0.05,19,0)" xlink:href="#aV"/><use transform="matrix(0.05,0,0,0.05,29,0)" xlink:href="#ba"/><use transform="matrix(0.05,0,0,0.05,39,0)" xlink:href="#aY"/><use transform="matrix(0.05,0,0,0.05,49,0)" xlink:href="#aZ"/><use transform="matrix(0.05,0,0,0.05,54,0)" xlink:href="#bc"/><use transform="matrix(0.05,0,0,0.05,59.95,0)" xlink:href="#aW"/><use transform="matrix(0.05,0,0,0.05,69.95,0)" xlink:href="#aV"/><use transform="matrix(0.05,0,0,0.05,79.95,0)" xlink:href="#aW"/></g><path fill="#333" d="M115-194c53 0 69 39 70 98 0 66-23 100-70 100C84 3 66-7 56-30L54 0H23l1-261h32v101c10-23 28-34 59-34zm-8 174c40 0 45-34 45-75 0-40-5-75-45-74-42 0-51 32-51 76 0 43 10 73 51 73" id="bh"/><g id="j"><use transform="matrix(0.05,0,0,0.05,0,0)" xlink:href="#aY"/><use transform="matrix(0.05,0,0,0.05,10,0)" xlink:href="#bg"/><use transform="matrix(0.05,0,0,0.05,20,0)" xlink:href="#aX"/><use transform="matrix(0.05,0,0,0.05,34.95,0)" xlink:href="#bh"/><use transform="matrix(0.05,0,0,0.05,44.95,0)" xlink:href="#bc"/><use transform="matrix(0.05,0,0,0.05,50.900000000000006,0)" xlink:href="#ba"/><use transform="matrix(0.05,0,0,0.05,60.900000000000006,0)" xlink:href="#ba"/><use transform="matrix(0.05,0,0,0.05,70.9,0)" xlink:href="#aY"/><use transform="matrix(0.05,0,0,0.05,80.9,0)" xlink:href="#aZ"/><use transform="matrix(0.05,0,0,0.05,85.9,0)" xlink:href="#bc"/><use transform="matrix(0.05,0,0,0.05,91.85000000000001,0)" xlink:href="#aW"/><use transform="matrix(0.05,0,0,0.05,101.85000000000001,0)" xlink:href="#aV"/><use transform="matrix(0.05,0,0,0.05,111.85000000000001,0)" xlink:href="#aW"/></g><path fill="#333" d="M106-169C34-169 62-67 57 0H25v-261h32l-1 103c12-21 28-36 61-36 89 0 53 116 60 194h-32v-121c2-32-8-49-39-48" id="bi"/><g id="k"><use transform="matrix(0.05,0,0,0.05,0,0)" xlink:href="#bd"/><use transform="matrix(0.05,0,0,0.05,9,0)" xlink:href="#bi"/><use transform="matrix(0.05,0,0,0.05,19,0)" xlink:href="#aW"/><use transform="matrix(0.05,0,0,0.05,29,0)" xlink:href="#bc"/><use transform="matrix(0.05,0,0,0.05,34.95,0)" xlink:href="#aW"/><use transform="matrix(0.05,0,0,0.05,44.95,0)" xlink:href="#bd"/><use transform="matrix(0.05,0,0,0.05,53.95,0)" xlink:href="#aZ"/><use transform="matrix(0.05,0,0,0.05,58.95,0)" xlink:href="#ba"/><use transform="matrix(0.05,0,0,0.05,68.95,0)" xlink:href="#bc"/></g><path fill="#333" d="M108 0H70L1-190h34L89-25l56-165h34" id="bj"/><path fill="#333" d="M179-190L93 31C79 59 56 82 12 73V49c39 6 53-20 64-50L1-190h34L92-34l54-156h33" id="bk"/><path fill="#333" d="M87 75C49 33 22-17 22-94c0-76 28-126 65-167h31c-38 41-64 92-64 168S80 34 118 75H87" id="bl"/><path fill="#333" d="M126-127c33 6 58 20 58 59 0 88-139 92-164 29-3-8-5-16-6-25l32-3c6 27 21 44 54 44 32 0 52-15 52-46 0-38-36-46-79-43v-28c39 1 72-4 72-42 0-27-17-43-46-43-28 0-47 15-49 41l-32-3c6-42 35-63 81-64 48-1 79 21 79 65 0 36-21 52-52 59" id="bm"/><path fill="#333" d="M101-251c68 0 85 55 85 127S166 4 100 4C33 4 14-52 14-124c0-73 17-127 87-127zm-1 229c47 0 54-49 54-102s-4-102-53-102c-51 0-55 48-55 102 0 53 5 102 54 102" id="bn"/><path fill="#333" d="M33-261c38 41 65 92 65 168S71 34 33 75H2C39 34 66-17 66-93S39-220 2-261h31" id="bo"/><g id="l"><use transform="matrix(0.05,0,0,0.05,0,0)" xlink:href="#bj"/><use transform="matrix(0.05,0,0,0.05,9,0)" xlink:href="#aW"/><use transform="matrix(0.05,0,0,0.05,19,0)" xlink:href="#bc"/><use transform="matrix(0.05,0,0,0.05,24.95,0)" xlink:href="#bk"/><use transform="matrix(0.05,0,0,0.05,33.95,0)" xlink:href="#aU"/><use transform="matrix(0.05,0,0,0.05,37.900000000000006,0)" xlink:href="#aY"/><use transform="matrix(0.05,0,0,0.05,47.900000000000006,0)" xlink:href="#bb"/><use transform="matrix(0.05,0,0,0.05,57.900000000000006,0)" xlink:href="#bl"/><use transform="matrix(0.05,0,0,0.05,63.85,0)" xlink:href="#bm"/><use transform="matrix(0.05,0,0,0.05,73.85000000000001,0)" xlink:href="#bn"/><use transform="matrix(0.05,0,0,0.05,83.85000000000001,0)" xlink:href="#bo"/></g><path fill="#333" d="M115-194c55 1 70 41 70 98S169 2 115 4C84 4 66-9 55-30l1 105H24l-1-265h31l2 30c10-21 28-34 59-34zm-8 174c40 0 45-34 45-75s-6-73-45-74c-42 0-51 32-51 76 0 43 10 73 51 73" id="bp"/><g id="m"><use transform="matrix(0.05,0,0,0.05,0,0)" xlink:href="#aZ"/><use transform="matrix(0.05,0,0,0.05,5,0)" xlink:href="#aU"/><use transform="matrix(0.05,0,0,0.05,8.95,0)" xlink:href="#bp"/><use transform="matrix(0.05,0,0,0.05,18.95,0)" xlink:href="#bg"/><use transform="matrix(0.05,0,0,0.05,28.950000000000003,0)" xlink:href="#ba"/><use transform="matrix(0.05,0,0,0.05,38.95,0)" xlink:href="#aY"/><use transform="matrix(0.05,0,0,0.05,48.95,0)" xlink:href="#aZ"/><use transform="matrix(0.05,0,0,0.05,53.95,0)" xlink:href="#bc"/><use transform="matrix(0.05,0,0,0.05,59.900000000000006,0)" xlink:href="#aW"/><use transform="matrix(0.05,0,0,0.05,69.9,0)" xlink:href="#aV"/><use transform="matrix(0.05,0,0,0.05,79.9,0)" xlink:href="#aW"/></g><path fill="#333" d="M54-142c48-35 137-8 131 61C196 18 31 33 14-55l32-4c7 23 22 37 52 37 35-1 51-22 54-58 4-55-73-65-99-34H22l8-134h141v27H59" id="bq"/><g id="n"><use transform="matrix(0.05,0,0,0.05,0,0)" xlink:href="#bj"/><use transform="matrix(0.05,0,0,0.05,9,0)" xlink:href="#aW"/><use transform="matrix(0.05,0,0,0.05,19,0)" xlink:href="#bc"/><use transform="matrix(0.05,0,0,0.05,24.95,0)" xlink:href="#bk"/><use transform="matrix(0.05,0,0,0.05,33.95,0)" xlink:href="#aU"/><use transform="matrix(0.05,0,0,0.05,37.900000000000006,0)" xlink:href="#aY"/><use transform="matrix(0.05,0,0,0.05,47.900000000000006,0)" xlink:href="#bb"/><use transform="matrix(0.05,0,0,0.05,57.900000000000006,0)" xlink:href="#bl"/><use transform="matrix(0.05,0,0,0.05,63.85,0)" xlink:href="#bq"/><use transform="matrix(0.05,0,0,0.05,73.85000000000001,0)" xlink:href="#bn"/><use transform="matrix(0.05,0,0,0.05,83.85000000000001,0)" xlink:href="#bo"/></g><g id="o"><use transform="matrix(0.05,0,0,0.05,0,0)" xlink:href="#bp"/><use transform="matrix(0.05,0,0,0.05,10,0)" xlink:href="#bc"/><use transform="matrix(0.05,0,0,0.05,15.949999999999998,0)" xlink:href="#ba"/><use transform="matrix(0.05,0,0,0.05,25.950000000000003,0)" xlink:href="#bd"/><use transform="matrix(0.05,0,0,0.05,34.95,0)" xlink:href="#aU"/><use transform="matrix(0.05,0,0,0.05,38.900000000000006,0)" xlink:href="#bg"/><use transform="matrix(0.05,0,0,0.05,48.900000000000006,0)" xlink:href="#ba"/><use transform="matrix(0.05,0,0,0.05,58.900000000000006,0)" xlink:href="#aY"/><use transform="matrix(0.05,0,0,0.05,68.9,0)" xlink:href="#aZ"/><use transform="matrix(0.05,0,0,0.05,73.9,0)" xlink:href="#bc"/><use transform="matrix(0.05,0,0,0.05,79.85000000000001,0)" xlink:href="#aW"/><use transform="matrix(0.05,0,0,0.05,89.85000000000001,0)" xlink:href="#aV"/><use transform="matrix(0.05,0,0,0.05,99.85000000000001,0)" xlink:href="#aW"/></g><path fill="#333" d="M84 4C-5 8 30-112 23-190h32v120c0 31 7 50 39 49 72-2 45-101 50-169h31l1 190h-30c-1-10 1-25-2-33-11 22-28 36-60 37" id="br"/><g id="p"><use transform="matrix(0.05,0,0,0.05,0,0)" xlink:href="#aV"/><use transform="matrix(0.05,0,0,0.05,10,0)" xlink:href="#bg"/><use transform="matrix(0.05,0,0,0.05,20,0)" xlink:href="#br"/><use transform="matrix(0.05,0,0,0.05,30,0)" xlink:href="#bh"/><use transform="matrix(0.05,0,0,0.05,40,0)" xlink:href="#be"/><use transform="matrix(0.05,0,0,0.05,43.95,0)" xlink:href="#ba"/></g><path fill="#333" d="M135-143c-3-34-86-38-87 0 15 53 115 12 119 90S17 21 10-45l28-5c4 36 97 45 98 0-10-56-113-15-118-90-4-57 82-63 122-42 12 7 21 19 24 35" id="bs"/><g id="q"><use transform="matrix(0.05,0,0,0.05,0,0)" xlink:href="#bp"/><use transform="matrix(0.05,0,0,0.05,10,0)" xlink:href="#bc"/><use transform="matrix(0.05,0,0,0.05,15.949999999999998,0)" xlink:href="#ba"/><use transform="matrix(0.05,0,0,0.05,25.950000000000003,0)" xlink:href="#bd"/><use transform="matrix(0.05,0,0,0.05,34.95,0)" xlink:href="#aU"/><use transform="matrix(0.05,0,0,0.05,38.900000000000006,0)" xlink:href="#bs"/><use transform="matrix(0.05,0,0,0.05,47.900000000000006,0)" xlink:href="#aU"/><use transform="matrix(0.05,0,0,0.05,51.85,0)" xlink:href="#bg"/><use transform="matrix(0.05,0,0,0.05,61.85,0)" xlink:href="#aY"/></g><g id="r"><use transform="matrix(0.05,0,0,0.05,0,0)" xlink:href="#aT"/><use transform="matrix(0.05,0,0,0.05,10.950000000000001,0)" xlink:href="#aR"/></g><g id="s"><use transform="matrix(0.05,0,0,0.05,0,0)" xlink:href="#aU"/><use transform="matrix(0.05,0,0,0.05,3.95,0)" xlink:href="#aV"/><use transform="matrix(0.05,0,0,0.05,13.949999999999998,0)" xlink:href="#ba"/><use transform="matrix(0.05,0,0,0.05,23.95,0)" xlink:href="#bs"/><use transform="matrix(0.05,0,0,0.05,32.95,0)" xlink:href="#aZ"/><use transform="matrix(0.05,0,0,0.05,37.95,0)" xlink:href="#aW"/><use transform="matrix(0.05,0,0,0.05,47.95,0)" xlink:href="#aV"/><use transform="matrix(0.05,0,0,0.05,57.95,0)" xlink:href="#bg"/></g><g id="t"><use transform="matrix(0.05,0,0,0.05,0,0)" xlink:href="#aU"/><use transform="matrix(0.05,0,0,0.05,3.95,0)" xlink:href="#aX"/><use transform="matrix(0.05,0,0,0.05,18.900000000000002,0)" xlink:href="#bb"/><use transform="matrix(0.05,0,0,0.05,28.900000000000002,0)" xlink:href="#ba"/><use transform="matrix(0.05,0,0,0.05,38.900000000000006,0)" xlink:href="#aY"/><use transform="matrix(0.05,0,0,0.05,48.900000000000006,0)" xlink:href="#aZ"/><use transform="matrix(0.05,0,0,0.05,53.900000000000006,0)" xlink:href="#bc"/><use transform="matrix(0.05,0,0,0.05,59.85,0)" xlink:href="#aW"/><use transform="matrix(0.05,0,0,0.05,69.85000000000001,0)" xlink:href="#aV"/><use transform="matrix(0.05,0,0,0.05,79.85000000000001,0)" xlink:href="#aW"/></g><path fill="#333" d="M185-189c-5-48-123-54-124 2 14 75 158 14 163 119 3 78-121 87-175 55-17-10-28-26-33-46l33-7c5 56 141 63 141-1 0-78-155-14-162-118-5-82 145-84 179-34 5 7 8 16 11 25" id="bt"/><path fill="#333" d="M140-251c81 0 123 46 123 126C263-46 219 4 140 4 59 4 17-45 17-125s42-126 123-126zm0 227c63 0 89-41 89-101s-29-99-89-99c-61 0-89 39-89 99S79-25 140-24" id="bu"/><g id="u"><use transform="matrix(0.05,0,0,0.05,0,0)" xlink:href="#aO"/><use transform="matrix(0.05,0,0,0.05,12,0)" xlink:href="#bt"/><use transform="matrix(0.05,0,0,0.05,24,0)" xlink:href="#aP"/><use transform="matrix(0.05,0,0,0.05,33.6,0)" xlink:href="#aG"/><use transform="matrix(0.05,0,0,0.05,45.6,0)" xlink:href="#aH"/><use transform="matrix(0.05,0,0,0.05,58.550000000000004,0)" xlink:href="#bu"/></g><g id="v"><use transform="matrix(0.05,0,0,0.05,0,0)" xlink:href="#aY"/><use transform="matrix(0.05,0,0,0.05,10,0)" xlink:href="#bg"/><use transform="matrix(0.05,0,0,0.05,20,0)" xlink:href="#aX"/><use transform="matrix(0.05,0,0,0.05,34.95,0)" xlink:href="#ba"/><use transform="matrix(0.05,0,0,0.05,44.95,0)" xlink:href="#bs"/><use transform="matrix(0.05,0,0,0.05,53.95,0)" xlink:href="#aZ"/><use transform="matrix(0.05,0,0,0.05,58.95,0)" xlink:href="#aW"/><use transform="matrix(0.05,0,0,0.05,68.95,0)" xlink:href="#aV"/><use transform="matrix(0.05,0,0,0.05,78.95,0)" xlink:href="#bg"/></g><path fill="#333" d="M101-251c82-7 93 87 43 132L82-64C71-53 59-42 53-27h129V0H18c2-99 128-94 128-182 0-28-16-43-45-43s-46 15-49 41l-32-3c6-41 34-60 81-64" id="bv"/><g id="w"><use transform="matrix(0.05,0,0,0.05,0,0)" xlink:href="#bj"/><use transform="matrix(0.05,0,0,0.05,9,0)" xlink:href="#aW"/><use transform="matrix(0.05,0,0,0.05,19,0)" xlink:href="#bc"/><use transform="matrix(0.05,0,0,0.05,24.95,0)" xlink:href="#bk"/><use transform="matrix(0.05,0,0,0.05,33.95,0)" xlink:href="#aU"/><use transform="matrix(0.05,0,0,0.05,37.900000000000006,0)" xlink:href="#aY"/><use transform="matrix(0.05,0,0,0.05,47.900000000000006,0)" xlink:href="#bb"/><use transform="matrix(0.05,0,0,0.05,57.900000000000006,0)" xlink:href="#bl"/><use transform="matrix(0.05,0,0,0.05,63.85,0)" xlink:href="#bv"/><use transform="matrix(0.05,0,0,0.05,73.85000000000001,0)" xlink:href="#bn"/><use transform="matrix(0.05,0,0,0.05,83.85000000000001,0)" xlink:href="#bo"/></g><g id="x"><use transform="matrix(0.05,0,0,0.05,0,0)" xlink:href="#ba"/><use transform="matrix(0.05,0,0,0.05,10,0)" xlink:href="#bs"/><use transform="matrix(0.05,0,0,0.05,19,0)" xlink:href="#aZ"/><use transform="matrix(0.05,0,0,0.05,24,0)" xlink:href="#aW"/><use transform="matrix(0.05,0,0,0.05,34,0)" xlink:href="#aV"/><use transform="matrix(0.05,0,0,0.05,44,0)" xlink:href="#bg"/><use transform="matrix(0.05,0,0,0.05,54,0)" xlink:href="#bc"/><use transform="matrix(0.05,0,0,0.05,59.95,0)" xlink:href="#ba"/><use transform="matrix(0.05,0,0,0.05,69.95,0)" xlink:href="#bs"/><use transform="matrix(0.05,0,0,0.05,78.95,0)" xlink:href="#ba"/><use transform="matrix(0.05,0,0,0.05,88.95,0)" xlink:href="#bc"/><use transform="matrix(0.05,0,0,0.05,94.9,0)" xlink:href="#bj"/><use transform="matrix(0.05,0,0,0.05,103.9,0)" xlink:href="#aW"/></g><g id="y"><use transform="matrix(0.05,0,0,0.05,0,0)" xlink:href="#ba"/><use transform="matrix(0.05,0,0,0.05,10,0)" xlink:href="#bs"/><use transform="matrix(0.05,0,0,0.05,19,0)" xlink:href="#aZ"/><use transform="matrix(0.05,0,0,0.05,24,0)" xlink:href="#aW"/><use transform="matrix(0.05,0,0,0.05,34,0)" xlink:href="#aV"/><use transform="matrix(0.05,0,0,0.05,44,0)" xlink:href="#bg"/><use transform="matrix(0.05,0,0,0.05,54,0)" xlink:href="#aW"/><use transform="matrix(0.05,0,0,0.05,64,0)" xlink:href="#bd"/><use transform="matrix(0.05,0,0,0.05,73,0)" xlink:href="#aZ"/><use transform="matrix(0.05,0,0,0.05,78,0)" xlink:href="#br"/><use transform="matrix(0.05,0,0,0.05,88,0)" xlink:href="#aW"/><use transform="matrix(0.05,0,0,0.05,98,0)" xlink:href="#be"/></g><path fill="#333" d="M27 0v-27h64v-190l-56 39v-29l58-41h29v221h61V0H27" id="bw"/><g id="z"><use transform="matrix(0.05,0,0,0.05,0,0)" xlink:href="#bj"/><use transform="matrix(0.05,0,0,0.05,9,0)" xlink:href="#aW"/><use transform="matrix(0.05,0,0,0.05,19,0)" xlink:href="#bc"/><use transform="matrix(0.05,0,0,0.05,24.95,0)" xlink:href="#bk"/><use transform="matrix(0.05,0,0,0.05,33.95,0)" xlink:href="#aU"/><use transform="matrix(0.05,0,0,0.05,37.900000000000006,0)" xlink:href="#aY"/><use transform="matrix(0.05,0,0,0.05,47.900000000000006,0)" xlink:href="#bb"/><use transform="matrix(0.05,0,0,0.05,57.900000000000006,0)" xlink:href="#bl"/><use transform="matrix(0.05,0,0,0.05,63.85,0)" xlink:href="#bw"/><use transform="matrix(0.05,0,0,0.05,73.85000000000001,0)" xlink:href="#bq"/><use transform="matrix(0.05,0,0,0.05,83.85000000000001,0)" xlink:href="#bo"/></g><path fill="#333" d="M197 0v-115H63V0H30v-248h33v105h134v-105h34V0h-34" id="bx"/><path fill="#333" d="M160-131c35 5 61 23 61 61C221 17 115-2 30 0v-248c76 3 177-17 177 60 0 33-19 50-47 57zm-97-11c50-1 110 9 110-42 0-47-63-36-110-37v79zm0 115c55-2 124 14 124-45 0-56-70-42-124-44v89" id="by"/><g id="A"><use transform="matrix(0.05,0,0,0.05,0,0)" xlink:href="#bx"/><use transform="matrix(0.05,0,0,0.05,12.950000000000001,0)" xlink:href="#aG"/><use transform="matrix(0.05,0,0,0.05,24.950000000000003,0)" xlink:href="#by"/><use transform="matrix(0.05,0,0,0.05,36.95,0)" xlink:href="#aJ"/><use transform="matrix(0.05,0,0,0.05,41.95,0)" xlink:href="#aP"/><use transform="matrix(0.05,0,0,0.05,51.550000000000004,0)" xlink:href="#aG"/><use transform="matrix(0.05,0,0,0.05,63.550000000000004,0)" xlink:href="#aM"/><use transform="matrix(0.05,0,0,0.05,76.5,0)" xlink:href="#aJ"/><use transform="matrix(0.05,0,0,0.05,81.5,0)" xlink:href="#bu"/><use transform="matrix(0.05,0,0,0.05,95.5,0)" xlink:href="#aK"/></g><g id="B"><use transform="matrix(0.05,0,0,0.05,0,0)" xlink:href="#bd"/><use transform="matrix(0.05,0,0,0.05,9,0)" xlink:href="#bg"/><use transform="matrix(0.05,0,0,0.05,19,0)" xlink:href="#aV"/><use transform="matrix(0.05,0,0,0.05,29,0)" xlink:href="#bi"/><use transform="matrix(0.05,0,0,0.05,39,0)" xlink:href="#aW"/><use transform="matrix(0.05,0,0,0.05,49,0)" xlink:href="#bh"/><use transform="matrix(0.05,0,0,0.05,59,0)" xlink:href="#aU"/><use transform="matrix(0.05,0,0,0.05,62.95,0)" xlink:href="#aZ"/><use transform="matrix(0.05,0,0,0.05,67.95,0)" xlink:href="#aW"/><use transform="matrix(0.05,0,0,0.05,77.95,0)" xlink:href="#bd"/><use transform="matrix(0.05,0,0,0.05,86.95,0)" xlink:href="#aU"/><use transform="matrix(0.05,0,0,0.05,90.9,0)" xlink:href="#bg"/><use transform="matrix(0.05,0,0,0.05,100.9,0)" xlink:href="#aY"/></g><g id="C"><use transform="matrix(0.05,0,0,0.05,0,0)" xlink:href="#aX"/><use transform="matrix(0.05,0,0,0.05,14.950000000000001,0)" xlink:href="#aW"/><use transform="matrix(0.05,0,0,0.05,24.950000000000003,0)" xlink:href="#aL"/><use transform="matrix(0.05,0,0,0.05,33.95,0)" xlink:href="#bp"/><use transform="matrix(0.05,0,0,0.05,43.95,0)" xlink:href="#ba"/><use transform="matrix(0.05,0,0,0.05,53.95,0)" xlink:href="#bc"/><use transform="matrix(0.05,0,0,0.05,59.900000000000006,0)" xlink:href="#bs"/><use transform="matrix(0.05,0,0,0.05,68.9,0)" xlink:href="#bg"/><use transform="matrix(0.05,0,0,0.05,78.9,0)" xlink:href="#aY"/></g><g id="D"><use transform="matrix(0.05,0,0,0.05,0,0)" xlink:href="#bp"/><use transform="matrix(0.05,0,0,0.05,10,0)" xlink:href="#bc"/><use transform="matrix(0.05,0,0,0.05,15.949999999999998,0)" xlink:href="#bd"/><use transform="matrix(0.05,0,0,0.05,24.95,0)" xlink:href="#bi"/><use transform="matrix(0.05,0,0,0.05,34.95,0)" xlink:href="#aW"/><use transform="matrix(0.05,0,0,0.05,44.95,0)" xlink:href="#bh"/><use transform="matrix(0.05,0,0,0.05,54.95,0)" xlink:href="#aU"/><use transform="matrix(0.05,0,0,0.05,58.900000000000006,0)" xlink:href="#aZ"/><use transform="matrix(0.05,0,0,0.05,63.900000000000006,0)" xlink:href="#aW"/><use transform="matrix(0.05,0,0,0.05,73.9,0)" xlink:href="#bd"/><use transform="matrix(0.05,0,0,0.05,82.9,0)" xlink:href="#aU"/><use transform="matrix(0.05,0,0,0.05,86.85000000000001,0)" xlink:href="#bg"/><use transform="matrix(0.05,0,0,0.05,96.85000000000001,0)" xlink:href="#aY"/></g><g id="E"><use transform="matrix(0.05,0,0,0.05,0,0)" xlink:href="#aV"/><use transform="matrix(0.05,0,0,0.05,10,0)" xlink:href="#ba"/><use transform="matrix(0.05,0,0,0.05,20,0)" xlink:href="#aZ"/><use transform="matrix(0.05,0,0,0.05,25,0)" xlink:href="#bi"/><use transform="matrix(0.05,0,0,0.05,35,0)" xlink:href="#aW"/><use transform="matrix(0.05,0,0,0.05,45,0)" xlink:href="#bh"/><use transform="matrix(0.05,0,0,0.05,55,0)" xlink:href="#aU"/><use transform="matrix(0.05,0,0,0.05,58.95,0)" xlink:href="#aZ"/><use transform="matrix(0.05,0,0,0.05,63.95,0)" xlink:href="#aW"/><use transform="matrix(0.05,0,0,0.05,73.95,0)" xlink:href="#bd"/><use transform="matrix(0.05,0,0,0.05,82.95,0)" xlink:href="#aU"/><use transform="matrix(0.05,0,0,0.05,86.9,0)" xlink:href="#bg"/><use transform="matrix(0.05,0,0,0.05,96.9,0)" xlink:href="#aY"/></g><g id="F"><use transform="matrix(0.05,0,0,0.05,0,0)" xlink:href="#bj"/><use transform="matrix(0.05,0,0,0.05,9,0)" xlink:href="#aW"/><use transform="matrix(0.05,0,0,0.05,19,0)" xlink:href="#bc"/><use transform="matrix(0.05,0,0,0.05,24.95,0)" xlink:href="#bk"/><use transform="matrix(0.05,0,0,0.05,33.95,0)" xlink:href="#aU"/><use transform="matrix(0.05,0,0,0.05,37.900000000000006,0)" xlink:href="#aY"/><use transform="matrix(0.05,0,0,0.05,47.900000000000006,0)" xlink:href="#bb"/><use transform="matrix(0.05,0,0,0.05,57.900000000000006,0)" xlink:href="#bl"/><use transform="matrix(0.05,0,0,0.05,63.85,0)" xlink:href="#bv"/><use transform="matrix(0.05,0,0,0.05,73.85000000000001,0)" xlink:href="#bq"/><use transform="matrix(0.05,0,0,0.05,83.85000000000001,0)" xlink:href="#bn"/><use transform="matrix(0.05,0,0,0.05,93.85000000000001,0)" xlink:href="#bo"/></g><g id="G"><use transform="matrix(0.05,0,0,0.05,0,0)" xlink:href="#aU"/><use transform="matrix(0.05,0,0,0.05,3.95,0)" xlink:href="#aV"/><use transform="matrix(0.05,0,0,0.05,13.949999999999998,0)" xlink:href="#bi"/><use transform="matrix(0.05,0,0,0.05,23.95,0)" xlink:href="#bg"/><use transform="matrix(0.05,0,0,0.05,33.95,0)" xlink:href="#aZ"/><use transform="matrix(0.05,0,0,0.05,38.95,0)" xlink:href="#ba"/><use transform="matrix(0.05,0,0,0.05,48.95,0)" xlink:href="#be"/></g><g id="H"><use transform="matrix(0.05,0,0,0.05,0,0)" xlink:href="#aU"/><use transform="matrix(0.05,0,0,0.05,3.95,0)" xlink:href="#aX"/><use transform="matrix(0.05,0,0,0.05,18.900000000000002,0)" xlink:href="#bb"/><use transform="matrix(0.05,0,0,0.05,28.900000000000002,0)" xlink:href="#bi"/><use transform="matrix(0.05,0,0,0.05,38.900000000000006,0)" xlink:href="#aW"/><use transform="matrix(0.05,0,0,0.05,48.900000000000006,0)" xlink:href="#bh"/><use transform="matrix(0.05,0,0,0.05,58.900000000000006,0)" xlink:href="#aU"/><use transform="matrix(0.05,0,0,0.05,62.85,0)" xlink:href="#aZ"/><use transform="matrix(0.05,0,0,0.05,67.85000000000001,0)" xlink:href="#aW"/><use transform="matrix(0.05,0,0,0.05,77.85000000000001,0)" xlink:href="#bd"/><use transform="matrix(0.05,0,0,0.05,86.85000000000001,0)" xlink:href="#aU"/><use transform="matrix(0.05,0,0,0.05,90.80000000000001,0)" xlink:href="#bg"/><use transform="matrix(0.05,0,0,0.05,100.80000000000001,0)" xlink:href="#aY"/></g><g id="I"><use transform="matrix(0.05,0,0,0.05,0,0)" xlink:href="#bx"/><use transform="matrix(0.05,0,0,0.05,12.950000000000001,0)" xlink:href="#bu"/><use transform="matrix(0.05,0,0,0.05,26.950000000000003,0)" xlink:href="#aP"/><use transform="matrix(0.05,0,0,0.05,37.900000000000006,0)" xlink:href="#aO"/><use transform="matrix(0.05,0,0,0.05,49.900000000000006,0)" xlink:href="#aN"/></g><g id="J"><use transform="matrix(0.05,0,0,0.05,0,0)" xlink:href="#aY"/><use transform="matrix(0.05,0,0,0.05,10,0)" xlink:href="#bg"/><use transform="matrix(0.05,0,0,0.05,20,0)" xlink:href="#aX"/><use transform="matrix(0.05,0,0,0.05,34.95,0)" xlink:href="#bi"/><use transform="matrix(0.05,0,0,0.05,44.95,0)" xlink:href="#bg"/><use transform="matrix(0.05,0,0,0.05,54.95,0)" xlink:href="#aZ"/><use transform="matrix(0.05,0,0,0.05,59.95,0)" xlink:href="#ba"/><use transform="matrix(0.05,0,0,0.05,69.95,0)" xlink:href="#be"/></g><g id="K"><use transform="matrix(0.05,0,0,0.05,0,0)" xlink:href="#be"/><use transform="matrix(0.05,0,0,0.05,3.95,0)" xlink:href="#bj"/><use transform="matrix(0.05,0,0,0.05,12.949999999999998,0)" xlink:href="#be"/><use transform="matrix(0.05,0,0,0.05,16.9,0)" xlink:href="#bi"/><use transform="matrix(0.05,0,0,0.05,26.899999999999995,0)" xlink:href="#bg"/><use transform="matrix(0.05,0,0,0.05,36.9,0)" xlink:href="#aZ"/><use transform="matrix(0.05,0,0,0.05,41.9,0)" xlink:href="#ba"/><use transform="matrix(0.05,0,0,0.05,51.900000000000006,0)" xlink:href="#be"/></g><g id="L"><use transform="matrix(0.05,0,0,0.05,0,0)" xlink:href="#aV"/><use transform="matrix(0.05,0,0,0.05,10,0)" xlink:href="#ba"/><use transform="matrix(0.05,0,0,0.05,20,0)" xlink:href="#bs"/><use transform="matrix(0.05,0,0,0.05,29,0)" xlink:href="#bd"/><use transform="matrix(0.05,0,0,0.05,38,0)" xlink:href="#bc"/><use transform="matrix(0.05,0,0,0.05,43.95,0)" xlink:href="#bi"/><use transform="matrix(0.05,0,0,0.05,53.95,0)" xlink:href="#bg"/><use transform="matrix(0.05,0,0,0.05,63.95,0)" xlink:href="#aZ"/><use transform="matrix(0.05,0,0,0.05,68.95,0)" xlink:href="#ba"/><use transform="matrix(0.05,0,0,0.05,78.95,0)" xlink:href="#be"/></g><g id="M"><use transform="matrix(0.05,0,0,0.05,0,0)" xlink:href="#bj"/><use transform="matrix(0.05,0,0,0.05,9,0)" xlink:href="#aW"/><use transform="matrix(0.05,0,0,0.05,19,0)" xlink:href="#bc"/><use transform="matrix(0.05,0,0,0.05,24.95,0)" xlink:href="#bk"/><use transform="matrix(0.05,0,0,0.05,33.95,0)" xlink:href="#aU"/><use transform="matrix(0.05,0,0,0.05,37.900000000000006,0)" xlink:href="#aY"/><use transform="matrix(0.05,0,0,0.05,47.900000000000006,0)" xlink:href="#bb"/><use transform="matrix(0.05,0,0,0.05,57.900000000000006,0)" xlink:href="#bl"/><use transform="matrix(0.05,0,0,0.05,63.85,0)" xlink:href="#bm"/><use transform="matrix(0.05,0,0,0.05,73.85000000000001,0)" xlink:href="#bn"/><use transform="matrix(0.05,0,0,0.05,83.85000000000001,0)" xlink:href="#bn"/><use transform="matrix(0.05,0,0,0.05,93.85000000000001,0)" xlink:href="#bo"/></g><g id="N"><use transform="matrix(0.05,0,0,0.05,0,0)" xlink:href="#aV"/><use transform="matrix(0.05,0,0,0.05,10,0)" xlink:href="#ba"/><use transform="matrix(0.05,0,0,0.05,20,0)" xlink:href="#bs"/><use transform="matrix(0.05,0,0,0.05,29,0)" xlink:href="#bd"/><use transform="matrix(0.05,0,0,0.05,38,0)" xlink:href="#bc"/><use transform="matrix(0.05,0,0,0.05,43.95,0)" xlink:href="#bi"/><use transform="matrix(0.05,0,0,0.05,53.95,0)" xlink:href="#bg"/><use transform="matrix(0.05,0,0,0.05,63.95,0)" xlink:href="#aZ"/><use transform="matrix(0.05,0,0,0.05,68.95,0)" xlink:href="#ba"/><use transform="matrix(0.05,0,0,0.05,78.95,0)" xlink:href="#be"/><use transform="matrix(0.05,0,0,0.05,82.9,0)" xlink:href="#ba"/><use transform="matrix(0.05,0,0,0.05,92.9,0)" xlink:href="#aY"/><use transform="matrix(0.05,0,0,0.05,102.9,0)" xlink:href="#bb"/></g><g id="O"><use transform="matrix(0.05,0,0,0.05,0,0)" xlink:href="#aV"/><use transform="matrix(0.05,0,0,0.05,10,0)" xlink:href="#aU"/><use transform="matrix(0.05,0,0,0.05,13.949999999999998,0)" xlink:href="#bc"/><use transform="matrix(0.05,0,0,0.05,19.9,0)" xlink:href="#ba"/><use transform="matrix(0.05,0,0,0.05,29.899999999999995,0)" xlink:href="#bd"/><use transform="matrix(0.05,0,0,0.05,38.9,0)" xlink:href="#bi"/><use transform="matrix(0.05,0,0,0.05,48.9,0)" xlink:href="#bg"/><use transform="matrix(0.05,0,0,0.05,58.900000000000006,0)" xlink:href="#aZ"/><use transform="matrix(0.05,0,0,0.05,63.900000000000006,0)" xlink:href="#ba"/><use transform="matrix(0.05,0,0,0.05,73.9,0)" xlink:href="#be"/></g><g id="P"><use transform="matrix(0.05,0,0,0.05,0,0)" xlink:href="#bj"/><use transform="matrix(0.05,0,0,0.05,9,0)" xlink:href="#aW"/><use transform="matrix(0.05,0,0,0.05,19,0)" xlink:href="#bc"/><use transform="matrix(0.05,0,0,0.05,24.95,0)" xlink:href="#bk"/><use transform="matrix(0.05,0,0,0.05,33.95,0)" xlink:href="#aU"/><use transform="matrix(0.05,0,0,0.05,37.900000000000006,0)" xlink:href="#aY"/><use transform="matrix(0.05,0,0,0.05,47.900000000000006,0)" xlink:href="#bb"/><use transform="matrix(0.05,0,0,0.05,57.900000000000006,0)" xlink:href="#bl"/><use transform="matrix(0.05,0,0,0.05,63.85,0)" xlink:href="#bw"/><use transform="matrix(0.05,0,0,0.05,73.85000000000001,0)" xlink:href="#bn"/><use transform="matrix(0.05,0,0,0.05,83.85000000000001,0)" xlink:href="#bn"/><use transform="matrix(0.05,0,0,0.05,93.85000000000001,0)" xlink:href="#bo"/></g><g id="Q"><use transform="matrix(0.05,0,0,0.05,0,0)" xlink:href="#aU"/><use transform="matrix(0.05,0,0,0.05,3.95,0)" xlink:href="#aX"/><use transform="matrix(0.05,0,0,0.05,18.900000000000002,0)" xlink:href="#bb"/><use transform="matrix(0.05,0,0,0.05,28.900000000000002,0)" xlink:href="#bi"/><use transform="matrix(0.05,0,0,0.05,38.900000000000006,0)" xlink:href="#bg"/><use transform="matrix(0.05,0,0,0.05,48.900000000000006,0)" xlink:href="#aZ"/><use transform="matrix(0.05,0,0,0.05,53.900000000000006,0)" xlink:href="#ba"/><use transform="matrix(0.05,0,0,0.05,63.900000000000006,0)" xlink:href="#be"/></g><g id="R"><use transform="matrix(0.05,0,0,0.05,0,0)" xlink:href="#aQ"/><use transform="matrix(0.05,0,0,0.05,12,0)" xlink:href="#aN"/><use transform="matrix(0.05,0,0,0.05,22,0)" xlink:href="#aG"/><use transform="matrix(0.05,0,0,0.05,34,0)" xlink:href="#aK"/><use transform="matrix(0.05,0,0,0.05,46.95,0)" xlink:href="#aM"/><use transform="matrix(0.05,0,0,0.05,59.900000000000006,0)" xlink:href="#bu"/><use transform="matrix(0.05,0,0,0.05,73.9,0)" xlink:href="#aI"/><use transform="matrix(0.05,0,0,0.05,88.85000000000001,0)" xlink:href="#aJ"/><use transform="matrix(0.05,0,0,0.05,93.85000000000001,0)" xlink:href="#aH"/><use transform="matrix(0.05,0,0,0.05,106.80000000000001,0)" xlink:href="#aG"/></g><g id="S"><use transform="matrix(0.05,0,0,0.05,0,0)" xlink:href="#bd"/><use transform="matrix(0.05,0,0,0.05,9,0)" xlink:href="#bg"/><use transform="matrix(0.05,0,0,0.05,19,0)" xlink:href="#aV"/><use transform="matrix(0.05,0,0,0.05,29,0)" xlink:href="#bp"/><use transform="matrix(0.05,0,0,0.05,39,0)" xlink:href="#be"/><use transform="matrix(0.05,0,0,0.05,42.95,0)" xlink:href="#aW"/><use transform="matrix(0.05,0,0,0.05,52.95,0)" xlink:href="#aY"/></g><g id="T"><use transform="matrix(0.05,0,0,0.05,0,0)" xlink:href="#aY"/><use transform="matrix(0.05,0,0,0.05,10,0)" xlink:href="#bg"/><use transform="matrix(0.05,0,0,0.05,20,0)" xlink:href="#aX"/><use transform="matrix(0.05,0,0,0.05,34.95,0)" xlink:href="#bp"/><use transform="matrix(0.05,0,0,0.05,44.95,0)" xlink:href="#be"/><use transform="matrix(0.05,0,0,0.05,48.900000000000006,0)" xlink:href="#aW"/><use transform="matrix(0.05,0,0,0.05,58.900000000000006,0)" xlink:href="#aY"/></g><g id="U"><use transform="matrix(0.05,0,0,0.05,0,0)" xlink:href="#aV"/><use transform="matrix(0.05,0,0,0.05,10,0)" xlink:href="#ba"/><use transform="matrix(0.05,0,0,0.05,20,0)" xlink:href="#bs"/><use transform="matrix(0.05,0,0,0.05,29,0)" xlink:href="#bd"/><use transform="matrix(0.05,0,0,0.05,38,0)" xlink:href="#bc"/><use transform="matrix(0.05,0,0,0.05,43.95,0)" xlink:href="#bp"/><use transform="matrix(0.05,0,0,0.05,53.95,0)" xlink:href="#be"/><use transform="matrix(0.05,0,0,0.05,57.900000000000006,0)" xlink:href="#aW"/><use transform="matrix(0.05,0,0,0.05,67.9,0)" xlink:href="#aY"/></g><g id="V"><use transform="matrix(0.05,0,0,0.05,0,0)" xlink:href="#bj"/><use transform="matrix(0.05,0,0,0.05,9,0)" xlink:href="#aW"/><use transform="matrix(0.05,0,0,0.05,19,0)" xlink:href="#bc"/><use transform="matrix(0.05,0,0,0.05,24.95,0)" xlink:href="#bk"/><use transform="matrix(0.05,0,0,0.05,33.95,0)" xlink:href="#aU"/><use transform="matrix(0.05,0,0,0.05,37.900000000000006,0)" xlink:href="#aY"/><use transform="matrix(0.05,0,0,0.05,47.900000000000006,0)" xlink:href="#bb"/><use transform="matrix(0.05,0,0,0.05,57.900000000000006,0)" xlink:href="#bl"/><use transform="matrix(0.05,0,0,0.05,63.85,0)" xlink:href="#bw"/><use transform="matrix(0.05,0,0,0.05,73.85000000000001,0)" xlink:href="#bq"/><use transform="matrix(0.05,0,0,0.05,83.85000000000001,0)" xlink:href="#bn"/><use transform="matrix(0.05,0,0,0.05,93.85000000000001,0)" xlink:href="#bo"/></g><g id="W"><use transform="matrix(0.05,0,0,0.05,0,0)" xlink:href="#aU"/><use transform="matrix(0.05,0,0,0.05,3.95,0)" xlink:href="#aX"/><use transform="matrix(0.05,0,0,0.05,18.900000000000002,0)" xlink:href="#bb"/><use transform="matrix(0.05,0,0,0.05,28.900000000000002,0)" xlink:href="#bp"/><use transform="matrix(0.05,0,0,0.05,38.900000000000006,0)" xlink:href="#be"/><use transform="matrix(0.05,0,0,0.05,42.85000000000001,0)" xlink:href="#aW"/><use transform="matrix(0.05,0,0,0.05,52.85,0)" xlink:href="#aY"/></g><path fill="#333" d="M137 0h-34L2-248h35l83 218 83-218h36" id="bz"/><g id="X"><use transform="matrix(0.05,0,0,0.05,0,0)" xlink:href="#bf"/><use transform="matrix(0.05,0,0,0.05,12.950000000000001,0)" xlink:href="#aO"/><use transform="matrix(0.05,0,0,0.05,24.950000000000003,0)" xlink:href="#bt"/><use transform="matrix(0.05,0,0,0.05,36.95,0)" xlink:href="#aO"/><use transform="matrix(0.05,0,0,0.05,48.95,0)" xlink:href="#bf"/><use transform="matrix(0.05,0,0,0.05,61.550000000000004,0)" xlink:href="#bz"/><use transform="matrix(0.05,0,0,0.05,72.2,0)" xlink:href="#aG"/></g><g id="Y"><use transform="matrix(0.05,0,0,0.05,0,0)" xlink:href="#bd"/><use transform="matrix(0.05,0,0,0.05,9,0)" xlink:href="#bg"/><use transform="matrix(0.05,0,0,0.05,19,0)" xlink:href="#aV"/><use transform="matrix(0.05,0,0,0.05,29,0)" xlink:href="#bc"/><use transform="matrix(0.05,0,0,0.05,34.95,0)" xlink:href="#ba"/><use transform="matrix(0.05,0,0,0.05,44.95,0)" xlink:href="#bs"/><use transform="matrix(0.05,0,0,0.05,53.95,0)" xlink:href="#ba"/><use transform="matrix(0.05,0,0,0.05,63.95,0)" xlink:href="#bc"/><use transform="matrix(0.05,0,0,0.05,69.9,0)" xlink:href="#bj"/><use transform="matrix(0.05,0,0,0.05,78.9,0)" xlink:href="#aW"/></g><path fill="#333" d="M101-234c-31-9-42 10-38 44h38v23H63V0H32v-167H5v-23h27c-7-52 17-82 69-68v24" id="bA"/><g id="Z"><use transform="matrix(0.05,0,0,0.05,0,0)" xlink:href="#bA"/><use transform="matrix(0.05,0,0,0.05,5,0)" xlink:href="#ba"/><use transform="matrix(0.05,0,0,0.05,15,0)" xlink:href="#bd"/><use transform="matrix(0.05,0,0,0.05,24,0)" xlink:href="#bi"/><use transform="matrix(0.05,0,0,0.05,34,0)" xlink:href="#aW"/><use transform="matrix(0.05,0,0,0.05,44,0)" xlink:href="#aU"/><use transform="matrix(0.05,0,0,0.05,47.95,0)" xlink:href="#aY"/><use transform="matrix(0.05,0,0,0.05,57.95,0)" xlink:href="#aU"/><use transform="matrix(0.05,0,0,0.05,61.900000000000006,0)" xlink:href="#bd"/><use transform="matrix(0.05,0,0,0.05,70.9,0)" xlink:href="#aU"/><use transform="matrix(0.05,0,0,0.05,74.85000000000001,0)" xlink:href="#bg"/><use transform="matrix(0.05,0,0,0.05,84.85000000000001,0)" xlink:href="#bc"/></g><g id="aa"><use transform="matrix(0.05,0,0,0.05,0,0)" xlink:href="#aV"/><use transform="matrix(0.05,0,0,0.05,10,0)" xlink:href="#aW"/><use transform="matrix(0.05,0,0,0.05,20,0)" xlink:href="#aZ"/><use transform="matrix(0.05,0,0,0.05,25,0)" xlink:href="#ba"/></g><g id="ab"><use transform="matrix(0.05,0,0,0.05,0,0)" xlink:href="#bA"/><use transform="matrix(0.05,0,0,0.05,5,0)" xlink:href="#ba"/><use transform="matrix(0.05,0,0,0.05,15,0)" xlink:href="#bd"/><use transform="matrix(0.05,0,0,0.05,24,0)" xlink:href="#bi"/><use transform="matrix(0.05,0,0,0.05,34,0)" xlink:href="#aW"/><use transform="matrix(0.05,0,0,0.05,44,0)" xlink:href="#bA"/><use transform="matrix(0.05,0,0,0.05,49,0)" xlink:href="#aU"/><use transform="matrix(0.05,0,0,0.05,52.95,0)" xlink:href="#aY"/><use transform="matrix(0.05,0,0,0.05,62.95,0)" xlink:href="#bc"/></g><g id="ac"><use transform="matrix(0.05,0,0,0.05,0,0)" xlink:href="#aY"/><use transform="matrix(0.05,0,0,0.05,10,0)" xlink:href="#br"/><use transform="matrix(0.05,0,0,0.05,20,0)" xlink:href="#aX"/><use transform="matrix(0.05,0,0,0.05,34.95,0)" xlink:href="#aW"/><use transform="matrix(0.05,0,0,0.05,44.95,0)" xlink:href="#aV"/><use transform="matrix(0.05,0,0,0.05,54.95,0)" xlink:href="#br"/><use transform="matrix(0.05,0,0,0.05,64.95,0)" xlink:href="#be"/><use transform="matrix(0.05,0,0,0.05,68.9,0)" xlink:href="#aZ"/><use transform="matrix(0.05,0,0,0.05,73.9,0)" xlink:href="#bg"/><use transform="matrix(0.05,0,0,0.05,83.9,0)" xlink:href="#bs"/></g><g id="ad"><use transform="matrix(0.05,0,0,0.05,0,0)" xlink:href="#aY"/><use transform="matrix(0.05,0,0,0.05,10,0)" xlink:href="#br"/><use transform="matrix(0.05,0,0,0.05,20,0)" xlink:href="#aX"/><use transform="matrix(0.05,0,0,0.05,34.95,0)" xlink:href="#aY"/><use transform="matrix(0.05,0,0,0.05,44.95,0)" xlink:href="#aU"/><use transform="matrix(0.05,0,0,0.05,48.900000000000006,0)" xlink:href="#aY"/><use transform="matrix(0.05,0,0,0.05,58.900000000000006,0)" xlink:href="#aY"/><use transform="matrix(0.05,0,0,0.05,68.9,0)" xlink:href="#bg"/><use transform="matrix(0.05,0,0,0.05,78.9,0)" xlink:href="#bs"/></g><g id="ae"><use transform="matrix(0.05,0,0,0.05,0,0)" xlink:href="#aU"/><use transform="matrix(0.05,0,0,0.05,3.95,0)" xlink:href="#aV"/><use transform="matrix(0.05,0,0,0.05,13.949999999999998,0)" xlink:href="#bA"/><use transform="matrix(0.05,0,0,0.05,18.95,0)" xlink:href="#aW"/><use transform="matrix(0.05,0,0,0.05,28.950000000000003,0)" xlink:href="#bd"/><use transform="matrix(0.05,0,0,0.05,37.95,0)" xlink:href="#aZ"/><use transform="matrix(0.05,0,0,0.05,42.95,0)" xlink:href="#br"/><use transform="matrix(0.05,0,0,0.05,52.95,0)" xlink:href="#bc"/><use transform="matrix(0.05,0,0,0.05,58.900000000000006,0)" xlink:href="#aW"/></g><g id="af"><use transform="matrix(0.05,0,0,0.05,0,0)" xlink:href="#aU"/><use transform="matrix(0.05,0,0,0.05,3.95,0)" xlink:href="#aV"/><use transform="matrix(0.05,0,0,0.05,13.949999999999998,0)" xlink:href="#br"/><use transform="matrix(0.05,0,0,0.05,23.95,0)" xlink:href="#bs"/><use transform="matrix(0.05,0,0,0.05,32.95,0)" xlink:href="#br"/><use transform="matrix(0.05,0,0,0.05,42.95,0)" xlink:href="#aW"/><use transform="matrix(0.05,0,0,0.05,52.95,0)" xlink:href="#bc"/><use transform="matrix(0.05,0,0,0.05,58.900000000000006,0)" xlink:href="#aU"/><use transform="matrix(0.05,0,0,0.05,62.85,0)" xlink:href="#bg"/></g><g id="ag"><use transform="matrix(0.05,0,0,0.05,0,0)" xlink:href="#bd"/><use transform="matrix(0.05,0,0,0.05,9,0)" xlink:href="#bg"/><use transform="matrix(0.05,0,0,0.05,19,0)" xlink:href="#aV"/><use transform="matrix(0.05,0,0,0.05,29,0)" xlink:href="#aZ"/><use transform="matrix(0.05,0,0,0.05,34,0)" xlink:href="#bc"/><use transform="matrix(0.05,0,0,0.05,39.95,0)" xlink:href="#aW"/><use transform="matrix(0.05,0,0,0.05,49.95,0)" xlink:href="#aY"/><use transform="matrix(0.05,0,0,0.05,59.95,0)" xlink:href="#bs"/><use transform="matrix(0.05,0,0,0.05,68.95,0)" xlink:href="#bp"/><use transform="matrix(0.05,0,0,0.05,78.95,0)" xlink:href="#bg"/><use transform="matrix(0.05,0,0,0.05,88.95,0)" xlink:href="#bc"/><use transform="matrix(0.05,0,0,0.05,94.9,0)" xlink:href="#aZ"/><use transform="matrix(0.05,0,0,0.05,99.9,0)" xlink:href="#ba"/></g><path fill="#333" d="M64 0c3-98 48-159 88-221H18v-27h164v26C143-157 98-101 97 0H64" id="bB"/><g id="ah"><use transform="matrix(0.05,0,0,0.05,0,0)" xlink:href="#bj"/><use transform="matrix(0.05,0,0,0.05,9,0)" xlink:href="#aW"/><use transform="matrix(0.05,0,0,0.05,19,0)" xlink:href="#bc"/><use transform="matrix(0.05,0,0,0.05,24.95,0)" xlink:href="#bk"/><use transform="matrix(0.05,0,0,0.05,33.95,0)" xlink:href="#aU"/><use transform="matrix(0.05,0,0,0.05,37.900000000000006,0)" xlink:href="#aY"/><use transform="matrix(0.05,0,0,0.05,47.900000000000006,0)" xlink:href="#bb"/><use transform="matrix(0.05,0,0,0.05,57.900000000000006,0)" xlink:href="#bl"/><use transform="matrix(0.05,0,0,0.05,63.85,0)" xlink:href="#bB"/><use transform="matrix(0.05,0,0,0.05,73.85000000000001,0)" xlink:href="#bo"/></g><g id="ai"><use transform="matrix(0.05,0,0,0.05,0,0)" xlink:href="#bf"/><use transform="matrix(0.05,0,0,0.05,12.950000000000001,0)" xlink:href="#aO"/><use transform="matrix(0.05,0,0,0.05,24.950000000000003,0)" xlink:href="#bt"/><use transform="matrix(0.05,0,0,0.05,36.95,0)" xlink:href="#aO"/><use transform="matrix(0.05,0,0,0.05,48.95,0)" xlink:href="#bf"/><use transform="matrix(0.05,0,0,0.05,61.550000000000004,0)" xlink:href="#bz"/><use transform="matrix(0.05,0,0,0.05,72.2,0)" xlink:href="#aG"/><use transform="matrix(0.05,0,0,0.05,84.2,0)" xlink:href="#aL"/><use transform="matrix(0.05,0,0,0.05,93.2,0)" xlink:href="#aO"/><use transform="matrix(0.05,0,0,0.05,105.2,0)" xlink:href="#aK"/><use transform="matrix(0.05,0,0,0.05,118.15,0)" xlink:href="#aP"/><use transform="matrix(0.05,0,0,0.05,129.1,0)" xlink:href="#bf"/><use transform="matrix(0.05,0,0,0.05,142.04999999999998,0)" xlink:href="#aG"/><use transform="matrix(0.05,0,0,0.05,154.04999999999998,0)" xlink:href="#aH"/><use transform="matrix(0.05,0,0,0.05,166.99999999999997,0)" xlink:href="#aG"/></g><g id="aj"><use transform="matrix(0.05,0,0,0.05,0,0)" xlink:href="#bd"/><use transform="matrix(0.05,0,0,0.05,9,0)" xlink:href="#aW"/><use transform="matrix(0.05,0,0,0.05,19,0)" xlink:href="#aY"/><use transform="matrix(0.05,0,0,0.05,29,0)" xlink:href="#aZ"/><use transform="matrix(0.05,0,0,0.05,34,0)" xlink:href="#aU"/><use transform="matrix(0.05,0,0,0.05,37.95,0)" xlink:href="#aV"/><use transform="matrix(0.05,0,0,0.05,47.95,0)" xlink:href="#aW"/><use transform="matrix(0.05,0,0,0.05,57.95,0)" xlink:href="#aV"/></g><g id="ak"><use transform="matrix(0.05,0,0,0.05,0,0)" xlink:href="#bA"/><use transform="matrix(0.05,0,0,0.05,5,0)" xlink:href="#ba"/><use transform="matrix(0.05,0,0,0.05,15,0)" xlink:href="#bd"/><use transform="matrix(0.05,0,0,0.05,24,0)" xlink:href="#bi"/><use transform="matrix(0.05,0,0,0.05,34,0)" xlink:href="#aW"/></g><g id="al"><use transform="matrix(0.05,0,0,0.05,0,0)" xlink:href="#bf"/><use transform="matrix(0.05,0,0,0.05,12.950000000000001,0)" xlink:href="#aO"/><use transform="matrix(0.05,0,0,0.05,24.950000000000003,0)" xlink:href="#bt"/><use transform="matrix(0.05,0,0,0.05,36.95,0)" xlink:href="#aO"/><use transform="matrix(0.05,0,0,0.05,48.95,0)" xlink:href="#bf"/><use transform="matrix(0.05,0,0,0.05,61.550000000000004,0)" xlink:href="#bz"/><use transform="matrix(0.05,0,0,0.05,72.2,0)" xlink:href="#aG"/><use transform="matrix(0.05,0,0,0.05,84.2,0)" xlink:href="#aL"/><use transform="matrix(0.05,0,0,0.05,93.2,0)" xlink:href="#bx"/><use transform="matrix(0.05,0,0,0.05,106.15,0)" xlink:href="#aG"/><use transform="matrix(0.05,0,0,0.05,118.15,0)" xlink:href="#by"/><use transform="matrix(0.05,0,0,0.05,130.15,0)" xlink:href="#aJ"/><use transform="matrix(0.05,0,0,0.05,135.15,0)" xlink:href="#aP"/><use transform="matrix(0.05,0,0,0.05,144.75,0)" xlink:href="#aG"/><use transform="matrix(0.05,0,0,0.05,156.75,0)" xlink:href="#aM"/><use transform="matrix(0.05,0,0,0.05,169.7,0)" xlink:href="#aJ"/><use transform="matrix(0.05,0,0,0.05,174.7,0)" xlink:href="#bu"/><use transform="matrix(0.05,0,0,0.05,188.7,0)" xlink:href="#aK"/></g><g id="am"><use transform="matrix(0.05,0,0,0.05,0,0)" xlink:href="#bd"/><use transform="matrix(0.05,0,0,0.05,9,0)" xlink:href="#aW"/><use transform="matrix(0.05,0,0,0.05,19,0)" xlink:href="#aY"/><use transform="matrix(0.05,0,0,0.05,29,0)" xlink:href="#aZ"/><use transform="matrix(0.05,0,0,0.05,34,0)" xlink:href="#aZ"/><use transform="matrix(0.05,0,0,0.05,39,0)" xlink:href="#aU"/><use transform="matrix(0.05,0,0,0.05,42.95,0)" xlink:href="#bp"/><use transform="matrix(0.05,0,0,0.05,52.95,0)" xlink:href="#bg"/></g><g id="an"><use transform="matrix(0.05,0,0,0.05,0,0)" xlink:href="#bf"/><use transform="matrix(0.05,0,0,0.05,12.950000000000001,0)" xlink:href="#aO"/><use transform="matrix(0.05,0,0,0.05,24.950000000000003,0)" xlink:href="#bt"/><use transform="matrix(0.05,0,0,0.05,36.95,0)" xlink:href="#aO"/><use transform="matrix(0.05,0,0,0.05,48.95,0)" xlink:href="#bf"/><use transform="matrix(0.05,0,0,0.05,61.550000000000004,0)" xlink:href="#bz"/><use transform="matrix(0.05,0,0,0.05,72.2,0)" xlink:href="#aG"/><use transform="matrix(0.05,0,0,0.05,84.2,0)" xlink:href="#aL"/><use transform="matrix(0.05,0,0,0.05,93.2,0)" xlink:href="#aQ"/><use transform="matrix(0.05,0,0,0.05,105.2,0)" xlink:href="#aN"/><use transform="matrix(0.05,0,0,0.05,115.2,0)" xlink:href="#aG"/><use transform="matrix(0.05,0,0,0.05,127.2,0)" xlink:href="#aK"/></g><g id="ao"><use transform="matrix(0.05,0,0,0.05,0,0)" xlink:href="#aP"/><use transform="matrix(0.05,0,0,0.05,10.950000000000001,0)" xlink:href="#bf"/><use transform="matrix(0.05,0,0,0.05,23.900000000000002,0)" xlink:href="#aG"/><use transform="matrix(0.05,0,0,0.05,35.900000000000006,0)" xlink:href="#aK"/><use transform="matrix(0.05,0,0,0.05,48.85000000000001,0)" xlink:href="#bt"/><use transform="matrix(0.05,0,0,0.05,60.85,0)" xlink:href="#aQ"/><use transform="matrix(0.05,0,0,0.05,72.85000000000001,0)" xlink:href="#bu"/><use transform="matrix(0.05,0,0,0.05,86.85000000000001,0)" xlink:href="#bf"/><use transform="matrix(0.05,0,0,0.05,99.45000000000002,0)" xlink:href="#aP"/><use transform="matrix(0.05,0,0,0.05,110.40000000000003,0)" xlink:href="#aO"/></g><g id="ap"><use transform="matrix(0.05,0,0,0.05,0,0)" xlink:href="#aX"/><use transform="matrix(0.05,0,0,0.05,14.950000000000001,0)" xlink:href="#bg"/><use transform="matrix(0.05,0,0,0.05,24.950000000000003,0)" xlink:href="#aV"/><use transform="matrix(0.05,0,0,0.05,34.95,0)" xlink:href="#ba"/><use transform="matrix(0.05,0,0,0.05,44.95,0)" xlink:href="#be"/><use transform="matrix(0.05,0,0,0.05,48.900000000000006,0)" xlink:href="#bg"/><use transform="matrix(0.05,0,0,0.05,58.900000000000006,0)" xlink:href="#aZ"/><use transform="matrix(0.05,0,0,0.05,63.900000000000006,0)" xlink:href="#bc"/><use transform="matrix(0.05,0,0,0.05,69.85000000000001,0)" xlink:href="#aW"/><use transform="matrix(0.05,0,0,0.05,79.85000000000001,0)" xlink:href="#aY"/><use transform="matrix(0.05,0,0,0.05,89.85000000000001,0)" xlink:href="#bs"/><use transform="matrix(0.05,0,0,0.05,98.85000000000001,0)" xlink:href="#bp"/><use transform="matrix(0.05,0,0,0.05,108.85000000000001,0)" xlink:href="#bg"/><use transform="matrix(0.05,0,0,0.05,118.85000000000001,0)" xlink:href="#bc"/><use transform="matrix(0.05,0,0,0.05,124.80000000000001,0)" xlink:href="#aZ"/><use transform="matrix(0.05,0,0,0.05,129.8,0)" xlink:href="#ba"/></g><g id="aq"><use transform="matrix(0.05,0,0,0.05,0,0)" xlink:href="#bj"/><use transform="matrix(0.05,0,0,0.05,9,0)" xlink:href="#aW"/><use transform="matrix(0.05,0,0,0.05,19,0)" xlink:href="#bc"/><use transform="matrix(0.05,0,0,0.05,24.95,0)" xlink:href="#bk"/><use transform="matrix(0.05,0,0,0.05,33.95,0)" xlink:href="#aU"/><use transform="matrix(0.05,0,0,0.05,37.900000000000006,0)" xlink:href="#aY"/><use transform="matrix(0.05,0,0,0.05,47.900000000000006,0)" xlink:href="#bb"/><use transform="matrix(0.05,0,0,0.05,57.900000000000006,0)" xlink:href="#bl"/><use transform="matrix(0.05,0,0,0.05,63.85,0)" xlink:href="#bw"/><use transform="matrix(0.05,0,0,0.05,73.85000000000001,0)" xlink:href="#bn"/><use transform="matrix(0.05,0,0,0.05,83.85000000000001,0)" xlink:href="#bo"/></g><path fill="#333" d="M24-231v-30h32v30H24zM-9 49c24 4 33-6 33-30v-209h32V24c2 40-23 58-65 49V49" id="bC"/><g id="ar"><use transform="matrix(0.05,0,0,0.05,0,0)" xlink:href="#aY"/><use transform="matrix(0.05,0,0,0.05,10,0)" xlink:href="#br"/><use transform="matrix(0.05,0,0,0.05,20,0)" xlink:href="#aX"/><use transform="matrix(0.05,0,0,0.05,34.95,0)" xlink:href="#bp"/><use transform="matrix(0.05,0,0,0.05,44.95,0)" xlink:href="#aW"/><use transform="matrix(0.05,0,0,0.05,54.95,0)" xlink:href="#bs"/><use transform="matrix(0.05,0,0,0.05,63.95,0)" xlink:href="#aW"/><use transform="matrix(0.05,0,0,0.05,73.95,0)" xlink:href="#bC"/><use transform="matrix(0.05,0,0,0.05,77.9,0)" xlink:href="#ba"/><use transform="matrix(0.05,0,0,0.05,87.9,0)" xlink:href="#bc"/><use transform="matrix(0.05,0,0,0.05,93.85000000000001,0)" xlink:href="#bg"/><use transform="matrix(0.05,0,0,0.05,103.85000000000001,0)" xlink:href="#bs"/></g><g id="as"><use transform="matrix(0.05,0,0,0.05,0,0)" xlink:href="#bd"/><use transform="matrix(0.05,0,0,0.05,9,0)" xlink:href="#aW"/><use transform="matrix(0.05,0,0,0.05,19,0)" xlink:href="#bp"/><use transform="matrix(0.05,0,0,0.05,29,0)" xlink:href="#aW"/><use transform="matrix(0.05,0,0,0.05,39,0)" xlink:href="#be"/><use transform="matrix(0.05,0,0,0.05,42.95,0)" xlink:href="#aX"/><use transform="matrix(0.05,0,0,0.05,57.900000000000006,0)" xlink:href="#aW"/><use transform="matrix(0.05,0,0,0.05,67.9,0)" xlink:href="#bd"/><use transform="matrix(0.05,0,0,0.05,76.9,0)" xlink:href="#ba"/><use transform="matrix(0.05,0,0,0.05,86.9,0)" xlink:href="#aY"/><use transform="matrix(0.05,0,0,0.05,96.9,0)" xlink:href="#aW"/><use transform="matrix(0.05,0,0,0.05,106.9,0)" xlink:href="#bC"/><use transform="matrix(0.05,0,0,0.05,110.85000000000001,0)" xlink:href="#ba"/></g><g id="at"><use transform="matrix(0.05,0,0,0.05,0,0)" xlink:href="#aU"/><use transform="matrix(0.05,0,0,0.05,3.95,0)" xlink:href="#aX"/><use transform="matrix(0.05,0,0,0.05,18.900000000000002,0)" xlink:href="#bb"/><use transform="matrix(0.05,0,0,0.05,28.900000000000002,0)" xlink:href="#aZ"/><use transform="matrix(0.05,0,0,0.05,33.900000000000006,0)" xlink:href="#bc"/><use transform="matrix(0.05,0,0,0.05,39.85000000000001,0)" xlink:href="#aW"/><use transform="matrix(0.05,0,0,0.05,49.85000000000001,0)" xlink:href="#aY"/><use transform="matrix(0.05,0,0,0.05,59.85,0)" xlink:href="#bs"/><use transform="matrix(0.05,0,0,0.05,68.85000000000001,0)" xlink:href="#bp"/><use transform="matrix(0.05,0,0,0.05,78.85000000000001,0)" xlink:href="#bg"/><use transform="matrix(0.05,0,0,0.05,88.85000000000001,0)" xlink:href="#bc"/><use transform="matrix(0.05,0,0,0.05,94.80000000000001,0)" xlink:href="#aZ"/><use transform="matrix(0.05,0,0,0.05,99.80000000000001,0)" xlink:href="#ba"/></g><path fill="#333" d="M232-93c-1 65-40 97-104 97C67 4 28-28 28-90v-158h33c8 89-33 224 67 224 102 0 64-133 71-224h33v155" id="bD"/><g id="au"><use transform="matrix(0.05,0,0,0.05,0,0)" xlink:href="#bD"/><use transform="matrix(0.05,0,0,0.05,12.950000000000001,0)" xlink:href="#bt"/><use transform="matrix(0.05,0,0,0.05,24.950000000000003,0)" xlink:href="#bD"/><use transform="matrix(0.05,0,0,0.05,37.900000000000006,0)" xlink:href="#aG"/><use transform="matrix(0.05,0,0,0.05,49.900000000000006,0)" xlink:href="#bf"/><use transform="matrix(0.05,0,0,0.05,62.85,0)" xlink:href="#aJ"/><use transform="matrix(0.05,0,0,0.05,67.85000000000001,0)" xlink:href="#bu"/></g><g id="av"><use transform="matrix(0.05,0,0,0.05,0,0)" xlink:href="#aY"/><use transform="matrix(0.05,0,0,0.05,10,0)" xlink:href="#bg"/><use transform="matrix(0.05,0,0,0.05,20,0)" xlink:href="#aX"/><use transform="matrix(0.05,0,0,0.05,34.95,0)" xlink:href="#br"/><use transform="matrix(0.05,0,0,0.05,44.95,0)" xlink:href="#bs"/><use transform="matrix(0.05,0,0,0.05,53.95,0)" xlink:href="#br"/><use transform="matrix(0.05,0,0,0.05,63.95,0)" xlink:href="#aW"/><use transform="matrix(0.05,0,0,0.05,73.95,0)" xlink:href="#bc"/><use transform="matrix(0.05,0,0,0.05,79.9,0)" xlink:href="#aU"/><use transform="matrix(0.05,0,0,0.05,83.85000000000001,0)" xlink:href="#bg"/></g><g id="aw"><use transform="matrix(0.05,0,0,0.05,0,0)" xlink:href="#aW"/><use transform="matrix(0.05,0,0,0.05,10,0)" xlink:href="#bp"/><use transform="matrix(0.05,0,0,0.05,20,0)" xlink:href="#ba"/><use transform="matrix(0.05,0,0,0.05,30,0)" xlink:href="#br"/><use transform="matrix(0.05,0,0,0.05,40,0)" xlink:href="#bs"/><use transform="matrix(0.05,0,0,0.05,49,0)" xlink:href="#br"/><use transform="matrix(0.05,0,0,0.05,59,0)" xlink:href="#aW"/><use transform="matrix(0.05,0,0,0.05,69,0)" xlink:href="#bc"/><use transform="matrix(0.05,0,0,0.05,74.95,0)" xlink:href="#aU"/><use transform="matrix(0.05,0,0,0.05,78.9,0)" xlink:href="#bg"/></g><g id="ax"><use transform="matrix(0.05,0,0,0.05,0,0)" xlink:href="#ba"/><use transform="matrix(0.05,0,0,0.05,10,0)" xlink:href="#aX"/><use transform="matrix(0.05,0,0,0.05,24.950000000000003,0)" xlink:href="#aW"/><use transform="matrix(0.05,0,0,0.05,34.95,0)" xlink:href="#aU"/><use transform="matrix(0.05,0,0,0.05,38.900000000000006,0)" xlink:href="#be"/><use transform="matrix(0.05,0,0,0.05,42.85000000000001,0)" xlink:href="#br"/><use transform="matrix(0.05,0,0,0.05,52.85,0)" xlink:href="#bs"/><use transform="matrix(0.05,0,0,0.05,61.85,0)" xlink:href="#br"/><use transform="matrix(0.05,0,0,0.05,71.85000000000001,0)" xlink:href="#aW"/><use transform="matrix(0.05,0,0,0.05,81.85000000000001,0)" xlink:href="#bc"/><use transform="matrix(0.05,0,0,0.05,87.80000000000001,0)" xlink:href="#aU"/><use transform="matrix(0.05,0,0,0.05,91.75000000000001,0)" xlink:href="#bg"/></g><g id="ay"><use transform="matrix(0.05,0,0,0.05,0,0)" xlink:href="#bp"/><use transform="matrix(0.05,0,0,0.05,10,0)" xlink:href="#aW"/><use transform="matrix(0.05,0,0,0.05,20,0)" xlink:href="#bs"/><use transform="matrix(0.05,0,0,0.05,29,0)" xlink:href="#bs"/><use transform="matrix(0.05,0,0,0.05,38,0)" xlink:href="#br"/><use transform="matrix(0.05,0,0,0.05,48,0)" xlink:href="#bs"/><use transform="matrix(0.05,0,0,0.05,57,0)" xlink:href="#br"/><use transform="matrix(0.05,0,0,0.05,67,0)" xlink:href="#aW"/><use transform="matrix(0.05,0,0,0.05,77,0)" xlink:href="#bc"/><use transform="matrix(0.05,0,0,0.05,82.95,0)" xlink:href="#aU"/><use transform="matrix(0.05,0,0,0.05,86.9,0)" xlink:href="#bg"/></g><g id="az"><use transform="matrix(0.05,0,0,0.05,0,0)" xlink:href="#bd"/><use transform="matrix(0.05,0,0,0.05,9,0)" xlink:href="#aY"/><use transform="matrix(0.05,0,0,0.05,19,0)" xlink:href="#aL"/><use transform="matrix(0.05,0,0,0.05,28,0)" xlink:href="#br"/><use transform="matrix(0.05,0,0,0.05,38,0)" xlink:href="#bs"/><use transform="matrix(0.05,0,0,0.05,47,0)" xlink:href="#br"/><use transform="matrix(0.05,0,0,0.05,57,0)" xlink:href="#aW"/><use transform="matrix(0.05,0,0,0.05,67,0)" xlink:href="#bc"/><use transform="matrix(0.05,0,0,0.05,72.95,0)" xlink:href="#aU"/><use transform="matrix(0.05,0,0,0.05,76.9,0)" xlink:href="#bg"/></g><g id="aA"><use transform="matrix(0.05,0,0,0.05,0,0)" xlink:href="#bh"/><use transform="matrix(0.05,0,0,0.05,10,0)" xlink:href="#bg"/><use transform="matrix(0.05,0,0,0.05,20,0)" xlink:href="#bg"/><use transform="matrix(0.05,0,0,0.05,30,0)" xlink:href="#be"/><use transform="matrix(0.05,0,0,0.05,33.95,0)" xlink:href="#ba"/><use transform="matrix(0.05,0,0,0.05,43.95,0)" xlink:href="#aW"/><use transform="matrix(0.05,0,0,0.05,53.95,0)" xlink:href="#aY"/></g><g id="aB"><use transform="matrix(0.05,0,0,0.05,0,0)" xlink:href="#bc"/><use transform="matrix(0.05,0,0,0.05,5.95,0)" xlink:href="#bg"/><use transform="matrix(0.05,0,0,0.05,15.949999999999998,0)" xlink:href="#be"/></g><g id="aC"><use transform="matrix(0.05,0,0,0.05,0,0)" xlink:href="#aT"/><use transform="matrix(0.05,0,0,0.05,9.950000000000001,0)" xlink:href="#aG"/><use transform="matrix(0.05,0,0,0.05,21.950000000000003,0)" xlink:href="#aM"/><use transform="matrix(0.05,0,0,0.05,34.900000000000006,0)" xlink:href="#aP"/><use transform="matrix(0.05,0,0,0.05,45.85000000000001,0)" xlink:href="#bD"/><use transform="matrix(0.05,0,0,0.05,58.80000000000001,0)" xlink:href="#bf"/><use transform="matrix(0.05,0,0,0.05,71.75000000000001,0)" xlink:href="#aG"/></g><g id="aD"><use transform="matrix(0.05,0,0,0.05,0,0)" xlink:href="#aU"/><use transform="matrix(0.05,0,0,0.05,3.95,0)" xlink:href="#aV"/><use transform="matrix(0.05,0,0,0.05,13.949999999999998,0)" xlink:href="#aT"/><use transform="matrix(0.05,0,0,0.05,24.9,0)" xlink:href="#aW"/><use transform="matrix(0.05,0,0,0.05,34.9,0)" xlink:href="#bd"/><use transform="matrix(0.05,0,0,0.05,43.9,0)" xlink:href="#aZ"/><use transform="matrix(0.05,0,0,0.05,48.9,0)" xlink:href="#br"/><use transform="matrix(0.05,0,0,0.05,58.900000000000006,0)" xlink:href="#bc"/><use transform="matrix(0.05,0,0,0.05,64.85,0)" xlink:href="#aW"/></g><g id="aE"><use transform="matrix(0.05,0,0,0.05,0,0)" xlink:href="#aP"/><use transform="matrix(0.05,0,0,0.05,10.950000000000001,0)" xlink:href="#bp"/><use transform="matrix(0.05,0,0,0.05,20.950000000000003,0)" xlink:href="#aW"/><use transform="matrix(0.05,0,0,0.05,30.950000000000003,0)" xlink:href="#bb"/><use transform="matrix(0.05,0,0,0.05,40.95,0)" xlink:href="#bg"/></g><g id="aF"><use transform="matrix(0.05,0,0,0.05,0,0)" xlink:href="#bA"/><use transform="matrix(0.05,0,0,0.05,5,0)" xlink:href="#be"/><use transform="matrix(0.05,0,0,0.05,8.95,0)" xlink:href="#bg"/><use transform="matrix(0.05,0,0,0.05,18.95,0)" xlink:href="#aW"/><use transform="matrix(0.05,0,0,0.05,28.950000000000003,0)" xlink:href="#aZ"/></g></defs></g></svg>